solid link8
   facet normal 1.161583e-001 -9.932307e-001 0.000000e+000
      outer loop
         vertex 0.000000e+000 -1.100000e-002 -3.114000e-001
         vertex 1.910130e-003 -1.083289e-002 -4.064000e-001
         vertex 1.910130e-003 -1.083289e-002 -3.114000e-001
      endloop
   endfacet
   facet normal 2.305519e-001 -9.730600e-001 0.000000e+000
      outer loop
         vertex 1.910130e-003 -1.083289e-002 -3.114000e-001
         vertex 1.910130e-003 -1.083289e-002 -4.064000e-001
         vertex 3.762222e-003 -1.033662e-002 -4.064000e-001
      endloop
   endfacet
   facet normal 2.868663e-001 -9.579706e-001 0.000000e+000
      outer loop
         vertex 1.910130e-003 -1.083289e-002 -3.114000e-001
         vertex 3.762222e-003 -1.033662e-002 -4.064000e-001
         vertex 3.762222e-003 -1.033662e-002 -3.114000e-001
      endloop
   endfacet
   facet normal 3.960194e-001 -9.182422e-001 0.000000e+000
      outer loop
         vertex 3.762222e-003 -1.033662e-002 -3.114000e-001
         vertex 3.762222e-003 -1.033662e-002 -4.064000e-001
         vertex 5.500000e-003 -9.526280e-003 -4.064000e-001
      endloop
   endfacet
   facet normal 4.488580e-001 -8.936031e-001 0.000000e+000
      outer loop
         vertex 3.762222e-003 -1.033662e-002 -3.114000e-001
         vertex 5.500000e-003 -9.526280e-003 -4.064000e-001
         vertex 5.500000e-003 -9.526280e-003 -3.114000e-001
      endloop
   endfacet
   facet normal 5.494540e-001 -8.355240e-001 0.000000e+000
      outer loop
         vertex 5.500000e-003 -9.526280e-003 -3.114000e-001
         vertex 5.500000e-003 -9.526280e-003 -4.064000e-001
         vertex 7.070664e-003 -8.426489e-003 -4.064000e-001
      endloop
   endfacet
   facet normal 5.972114e-001 -8.020839e-001 0.000000e+000
      outer loop
         vertex 5.500000e-003 -9.526280e-003 -3.114000e-001
         vertex 7.070664e-003 -8.426489e-003 -4.064000e-001
         vertex 7.070664e-003 -8.426489e-003 -3.114000e-001
      endloop
   endfacet
   facet normal 6.861938e-001 -7.274188e-001 0.000000e+000
      outer loop
         vertex 7.070664e-003 -8.426489e-003 -3.114000e-001
         vertex 7.070664e-003 -8.426489e-003 -4.064000e-001
         vertex 8.426489e-003 -7.070664e-003 -4.064000e-001
      endloop
   endfacet
   facet normal 7.274188e-001 -6.861938e-001 0.000000e+000
      outer loop
         vertex 7.070664e-003 -8.426489e-003 -3.114000e-001
         vertex 8.426489e-003 -7.070664e-003 -4.064000e-001
         vertex 8.426489e-003 -7.070664e-003 -3.114000e-001
      endloop
   endfacet
   facet normal 8.020839e-001 -5.972114e-001 0.000000e+000
      outer loop
         vertex 8.426489e-003 -7.070664e-003 -3.114000e-001
         vertex 8.426489e-003 -7.070664e-003 -4.064000e-001
         vertex 9.526280e-003 -5.500000e-003 -4.064000e-001
      endloop
   endfacet
   facet normal 8.355240e-001 -5.494540e-001 0.000000e+000
      outer loop
         vertex 8.426489e-003 -7.070664e-003 -3.114000e-001
         vertex 9.526280e-003 -5.500000e-003 -4.064000e-001
         vertex 9.526280e-003 -5.500000e-003 -3.114000e-001
      endloop
   endfacet
   facet normal 8.936031e-001 -4.488580e-001 0.000000e+000
      outer loop
         vertex 9.526280e-003 -5.500000e-003 -3.114000e-001
         vertex 9.526280e-003 -5.500000e-003 -4.064000e-001
         vertex 1.033662e-002 -3.762222e-003 -4.064000e-001
      endloop
   endfacet
   facet normal 9.182422e-001 -3.960194e-001 0.000000e+000
      outer loop
         vertex 9.526280e-003 -5.500000e-003 -3.114000e-001
         vertex 1.033662e-002 -3.762222e-003 -4.064000e-001
         vertex 1.033662e-002 -3.762222e-003 -3.114000e-001
      endloop
   endfacet
   facet normal 9.579706e-001 -2.868663e-001 0.000000e+000
      outer loop
         vertex 1.033662e-002 -3.762222e-003 -3.114000e-001
         vertex 1.033662e-002 -3.762222e-003 -4.064000e-001
         vertex 1.083289e-002 -1.910130e-003 -4.064000e-001
      endloop
   endfacet
   facet normal 9.730600e-001 -2.305519e-001 0.000000e+000
      outer loop
         vertex 1.033662e-002 -3.762222e-003 -3.114000e-001
         vertex 1.083289e-002 -1.910130e-003 -4.064000e-001
         vertex 1.083289e-002 -1.910130e-003 -3.114000e-001
      endloop
   endfacet
   facet normal 9.932307e-001 -1.161583e-001 0.000000e+000
      outer loop
         vertex 1.083289e-002 -1.910130e-003 -3.114000e-001
         vertex 1.083289e-002 -1.910130e-003 -4.064000e-001
         vertex 1.100000e-002 -6.735558e-019 -4.064000e-001
      endloop
   endfacet
   facet normal 9.983120e-001 -5.807914e-002 0.000000e+000
      outer loop
         vertex 1.083289e-002 -1.910130e-003 -3.114000e-001
         vertex 1.100000e-002 -6.735558e-019 -4.064000e-001
         vertex 1.100000e-002 -6.735558e-019 -3.114000e-001
      endloop
   endfacet
   facet normal 9.983120e-001 5.807914e-002 0.000000e+000
      outer loop
         vertex 1.100000e-002 -6.735558e-019 -3.114000e-001
         vertex 1.100000e-002 -6.735558e-019 -4.064000e-001
         vertex 1.083289e-002 1.910130e-003 -4.064000e-001
      endloop
   endfacet
   facet normal 9.932307e-001 1.161583e-001 0.000000e+000
      outer loop
         vertex 1.100000e-002 -6.735558e-019 -3.114000e-001
         vertex 1.083289e-002 1.910130e-003 -4.064000e-001
         vertex 1.083289e-002 1.910130e-003 -3.114000e-001
      endloop
   endfacet
   facet normal 9.730600e-001 2.305519e-001 0.000000e+000
      outer loop
         vertex 1.083289e-002 1.910130e-003 -3.114000e-001
         vertex 1.083289e-002 1.910130e-003 -4.064000e-001
         vertex 1.033662e-002 3.762222e-003 -4.064000e-001
      endloop
   endfacet
   facet normal 9.579706e-001 2.868663e-001 0.000000e+000
      outer loop
         vertex 1.083289e-002 1.910130e-003 -3.114000e-001
         vertex 1.033662e-002 3.762222e-003 -4.064000e-001
         vertex 1.033662e-002 3.762222e-003 -3.114000e-001
      endloop
   endfacet
   facet normal 9.182422e-001 3.960194e-001 0.000000e+000
      outer loop
         vertex 1.033662e-002 3.762222e-003 -3.114000e-001
         vertex 1.033662e-002 3.762222e-003 -4.064000e-001
         vertex 9.526280e-003 5.500000e-003 -4.064000e-001
      endloop
   endfacet
   facet normal 8.936031e-001 4.488580e-001 0.000000e+000
      outer loop
         vertex 1.033662e-002 3.762222e-003 -3.114000e-001
         vertex 9.526280e-003 5.500000e-003 -4.064000e-001
         vertex 9.526280e-003 5.500000e-003 -3.114000e-001
      endloop
   endfacet
   facet normal 8.355240e-001 5.494540e-001 0.000000e+000
      outer loop
         vertex 9.526280e-003 5.500000e-003 -3.114000e-001
         vertex 9.526280e-003 5.500000e-003 -4.064000e-001
         vertex 8.426489e-003 7.070664e-003 -4.064000e-001
      endloop
   endfacet
   facet normal 8.020839e-001 5.972114e-001 0.000000e+000
      outer loop
         vertex 9.526280e-003 5.500000e-003 -3.114000e-001
         vertex 8.426489e-003 7.070664e-003 -4.064000e-001
         vertex 8.426489e-003 7.070664e-003 -3.114000e-001
      endloop
   endfacet
   facet normal 7.274188e-001 6.861938e-001 0.000000e+000
      outer loop
         vertex 8.426489e-003 7.070664e-003 -3.114000e-001
         vertex 8.426489e-003 7.070664e-003 -4.064000e-001
         vertex 7.070664e-003 8.426489e-003 -4.064000e-001
      endloop
   endfacet
   facet normal 6.861938e-001 7.274188e-001 0.000000e+000
      outer loop
         vertex 8.426489e-003 7.070664e-003 -3.114000e-001
         vertex 7.070664e-003 8.426489e-003 -4.064000e-001
         vertex 7.070664e-003 8.426489e-003 -3.114000e-001
      endloop
   endfacet
   facet normal 5.972114e-001 8.020839e-001 0.000000e+000
      outer loop
         vertex 7.070664e-003 8.426489e-003 -3.114000e-001
         vertex 7.070664e-003 8.426489e-003 -4.064000e-001
         vertex 5.500000e-003 9.526280e-003 -4.064000e-001
      endloop
   endfacet
   facet normal 5.494540e-001 8.355240e-001 0.000000e+000
      outer loop
         vertex 7.070664e-003 8.426489e-003 -3.114000e-001
         vertex 5.500000e-003 9.526280e-003 -4.064000e-001
         vertex 5.500000e-003 9.526280e-003 -3.114000e-001
      endloop
   endfacet
   facet normal 4.488580e-001 8.936031e-001 0.000000e+000
      outer loop
         vertex 5.500000e-003 9.526280e-003 -3.114000e-001
         vertex 5.500000e-003 9.526280e-003 -4.064000e-001
         vertex 3.762222e-003 1.033662e-002 -4.064000e-001
      endloop
   endfacet
   facet normal 3.960194e-001 9.182422e-001 0.000000e+000
      outer loop
         vertex 5.500000e-003 9.526280e-003 -3.114000e-001
         vertex 3.762222e-003 1.033662e-002 -4.064000e-001
         vertex 3.762222e-003 1.033662e-002 -3.114000e-001
      endloop
   endfacet
   facet normal 2.868663e-001 9.579706e-001 0.000000e+000
      outer loop
         vertex 3.762222e-003 1.033662e-002 -3.114000e-001
         vertex 3.762222e-003 1.033662e-002 -4.064000e-001
         vertex 1.910130e-003 1.083289e-002 -4.064000e-001
      endloop
   endfacet
   facet normal 2.305519e-001 9.730600e-001 0.000000e+000
      outer loop
         vertex 3.762222e-003 1.033662e-002 -3.114000e-001
         vertex 1.910130e-003 1.083289e-002 -4.064000e-001
         vertex 1.910130e-003 1.083289e-002 -3.114000e-001
      endloop
   endfacet
   facet normal 1.161583e-001 9.932307e-001 0.000000e+000
      outer loop
         vertex 1.910130e-003 1.083289e-002 -3.114000e-001
         vertex 1.910130e-003 1.083289e-002 -4.064000e-001
         vertex 1.347112e-018 1.100000e-002 -4.064000e-001
      endloop
   endfacet
   facet normal 5.807914e-002 9.983120e-001 0.000000e+000
      outer loop
         vertex 1.910130e-003 1.083289e-002 -3.114000e-001
         vertex 1.347112e-018 1.100000e-002 -4.064000e-001
         vertex 1.347112e-018 1.100000e-002 -3.114000e-001
      endloop
   endfacet
   facet normal -5.807914e-002 9.983120e-001 0.000000e+000
      outer loop
         vertex 1.347112e-018 1.100000e-002 -3.114000e-001
         vertex 1.347112e-018 1.100000e-002 -4.064000e-001
         vertex -1.910130e-003 1.083289e-002 -4.064000e-001
      endloop
   endfacet
   facet normal -1.161583e-001 9.932307e-001 0.000000e+000
      outer loop
         vertex 1.347112e-018 1.100000e-002 -3.114000e-001
         vertex -1.910130e-003 1.083289e-002 -4.064000e-001
         vertex -1.910130e-003 1.083289e-002 -3.114000e-001
      endloop
   endfacet
   facet normal -2.305519e-001 9.730600e-001 0.000000e+000
      outer loop
         vertex -1.910130e-003 1.083289e-002 -3.114000e-001
         vertex -1.910130e-003 1.083289e-002 -4.064000e-001
         vertex -3.762222e-003 1.033662e-002 -4.064000e-001
      endloop
   endfacet
   facet normal -2.868663e-001 9.579706e-001 0.000000e+000
      outer loop
         vertex -1.910130e-003 1.083289e-002 -3.114000e-001
         vertex -3.762222e-003 1.033662e-002 -4.064000e-001
         vertex -3.762222e-003 1.033662e-002 -3.114000e-001
      endloop
   endfacet
   facet normal -3.960194e-001 9.182422e-001 0.000000e+000
      outer loop
         vertex -3.762222e-003 1.033662e-002 -3.114000e-001
         vertex -3.762222e-003 1.033662e-002 -4.064000e-001
         vertex -5.500000e-003 9.526280e-003 -4.064000e-001
      endloop
   endfacet
   facet normal -4.488580e-001 8.936031e-001 0.000000e+000
      outer loop
         vertex -3.762222e-003 1.033662e-002 -3.114000e-001
         vertex -5.500000e-003 9.526280e-003 -4.064000e-001
         vertex -5.500000e-003 9.526280e-003 -3.114000e-001
      endloop
   endfacet
   facet normal -5.494540e-001 8.355240e-001 0.000000e+000
      outer loop
         vertex -5.500000e-003 9.526280e-003 -3.114000e-001
         vertex -5.500000e-003 9.526280e-003 -4.064000e-001
         vertex -7.070664e-003 8.426489e-003 -4.064000e-001
      endloop
   endfacet
   facet normal -5.972114e-001 8.020839e-001 0.000000e+000
      outer loop
         vertex -5.500000e-003 9.526280e-003 -3.114000e-001
         vertex -7.070664e-003 8.426489e-003 -4.064000e-001
         vertex -7.070664e-003 8.426489e-003 -3.114000e-001
      endloop
   endfacet
   facet normal -6.861938e-001 7.274188e-001 0.000000e+000
      outer loop
         vertex -7.070664e-003 8.426489e-003 -3.114000e-001
         vertex -7.070664e-003 8.426489e-003 -4.064000e-001
         vertex -8.426489e-003 7.070664e-003 -4.064000e-001
      endloop
   endfacet
   facet normal -7.274188e-001 6.861938e-001 0.000000e+000
      outer loop
         vertex -7.070664e-003 8.426489e-003 -3.114000e-001
         vertex -8.426489e-003 7.070664e-003 -4.064000e-001
         vertex -8.426489e-003 7.070664e-003 -3.114000e-001
      endloop
   endfacet
   facet normal -8.020839e-001 5.972114e-001 0.000000e+000
      outer loop
         vertex -8.426489e-003 7.070664e-003 -3.114000e-001
         vertex -8.426489e-003 7.070664e-003 -4.064000e-001
         vertex -9.526280e-003 5.500000e-003 -4.064000e-001
      endloop
   endfacet
   facet normal -8.355240e-001 5.494540e-001 0.000000e+000
      outer loop
         vertex -8.426489e-003 7.070664e-003 -3.114000e-001
         vertex -9.526280e-003 5.500000e-003 -4.064000e-001
         vertex -9.526280e-003 5.500000e-003 -3.114000e-001
      endloop
   endfacet
   facet normal -8.936031e-001 4.488580e-001 0.000000e+000
      outer loop
         vertex -9.526280e-003 5.500000e-003 -3.114000e-001
         vertex -9.526280e-003 5.500000e-003 -4.064000e-001
         vertex -1.033662e-002 3.762222e-003 -4.064000e-001
      endloop
   endfacet
   facet normal -9.182422e-001 3.960194e-001 0.000000e+000
      outer loop
         vertex -9.526280e-003 5.500000e-003 -3.114000e-001
         vertex -1.033662e-002 3.762222e-003 -4.064000e-001
         vertex -1.033662e-002 3.762222e-003 -3.114000e-001
      endloop
   endfacet
   facet normal -9.579706e-001 2.868663e-001 0.000000e+000
      outer loop
         vertex -1.033662e-002 3.762222e-003 -3.114000e-001
         vertex -1.033662e-002 3.762222e-003 -4.064000e-001
         vertex -1.083289e-002 1.910130e-003 -4.064000e-001
      endloop
   endfacet
   facet normal -9.730600e-001 2.305519e-001 0.000000e+000
      outer loop
         vertex -1.033662e-002 3.762222e-003 -3.114000e-001
         vertex -1.083289e-002 1.910130e-003 -4.064000e-001
         vertex -1.083289e-002 1.910130e-003 -3.114000e-001
      endloop
   endfacet
   facet normal -9.932307e-001 1.161583e-001 0.000000e+000
      outer loop
         vertex -1.083289e-002 1.910130e-003 -3.114000e-001
         vertex -1.083289e-002 1.910130e-003 -4.064000e-001
         vertex -1.100000e-002 2.020667e-018 -4.064000e-001
      endloop
   endfacet
   facet normal -9.983120e-001 5.807914e-002 0.000000e+000
      outer loop
         vertex -1.083289e-002 1.910130e-003 -3.114000e-001
         vertex -1.100000e-002 2.020667e-018 -4.064000e-001
         vertex -1.100000e-002 2.020667e-018 -3.114000e-001
      endloop
   endfacet
   facet normal -9.983120e-001 -5.807914e-002 -0.000000e+000
      outer loop
         vertex -1.100000e-002 2.020667e-018 -3.114000e-001
         vertex -1.100000e-002 2.020667e-018 -4.064000e-001
         vertex -1.083289e-002 -1.910130e-003 -4.064000e-001
      endloop
   endfacet
   facet normal -9.932307e-001 -1.161583e-001 -0.000000e+000
      outer loop
         vertex -1.100000e-002 2.020667e-018 -3.114000e-001
         vertex -1.083289e-002 -1.910130e-003 -4.064000e-001
         vertex -1.083289e-002 -1.910130e-003 -3.114000e-001
      endloop
   endfacet
   facet normal -9.730600e-001 -2.305519e-001 -0.000000e+000
      outer loop
         vertex -1.083289e-002 -1.910130e-003 -3.114000e-001
         vertex -1.083289e-002 -1.910130e-003 -4.064000e-001
         vertex -1.033662e-002 -3.762222e-003 -4.064000e-001
      endloop
   endfacet
   facet normal -9.579706e-001 -2.868663e-001 -0.000000e+000
      outer loop
         vertex -1.083289e-002 -1.910130e-003 -3.114000e-001
         vertex -1.033662e-002 -3.762222e-003 -4.064000e-001
         vertex -1.033662e-002 -3.762222e-003 -3.114000e-001
      endloop
   endfacet
   facet normal -9.182422e-001 -3.960194e-001 -0.000000e+000
      outer loop
         vertex -1.033662e-002 -3.762222e-003 -3.114000e-001
         vertex -1.033662e-002 -3.762222e-003 -4.064000e-001
         vertex -9.526280e-003 -5.500000e-003 -4.064000e-001
      endloop
   endfacet
   facet normal -8.936031e-001 -4.488580e-001 -0.000000e+000
      outer loop
         vertex -1.033662e-002 -3.762222e-003 -3.114000e-001
         vertex -9.526280e-003 -5.500000e-003 -4.064000e-001
         vertex -9.526280e-003 -5.500000e-003 -3.114000e-001
      endloop
   endfacet
   facet normal -8.355240e-001 -5.494540e-001 -0.000000e+000
      outer loop
         vertex -9.526280e-003 -5.500000e-003 -3.114000e-001
         vertex -9.526280e-003 -5.500000e-003 -4.064000e-001
         vertex -8.426489e-003 -7.070664e-003 -4.064000e-001
      endloop
   endfacet
   facet normal -8.020839e-001 -5.972114e-001 -0.000000e+000
      outer loop
         vertex -9.526280e-003 -5.500000e-003 -3.114000e-001
         vertex -8.426489e-003 -7.070664e-003 -4.064000e-001
         vertex -8.426489e-003 -7.070664e-003 -3.114000e-001
      endloop
   endfacet
   facet normal -7.274188e-001 -6.861938e-001 -0.000000e+000
      outer loop
         vertex -8.426489e-003 -7.070664e-003 -3.114000e-001
         vertex -8.426489e-003 -7.070664e-003 -4.064000e-001
         vertex -7.070664e-003 -8.426489e-003 -4.064000e-001
      endloop
   endfacet
   facet normal -6.861938e-001 -7.274188e-001 -0.000000e+000
      outer loop
         vertex -8.426489e-003 -7.070664e-003 -3.114000e-001
         vertex -7.070664e-003 -8.426489e-003 -4.064000e-001
         vertex -7.070664e-003 -8.426489e-003 -3.114000e-001
      endloop
   endfacet
   facet normal -5.972114e-001 -8.020839e-001 -0.000000e+000
      outer loop
         vertex -7.070664e-003 -8.426489e-003 -3.114000e-001
         vertex -7.070664e-003 -8.426489e-003 -4.064000e-001
         vertex -5.500000e-003 -9.526280e-003 -4.064000e-001
      endloop
   endfacet
   facet normal -5.494540e-001 -8.355240e-001 -0.000000e+000
      outer loop
         vertex -7.070664e-003 -8.426489e-003 -3.114000e-001
         vertex -5.500000e-003 -9.526280e-003 -4.064000e-001
         vertex -5.500000e-003 -9.526280e-003 -3.114000e-001
      endloop
   endfacet
   facet normal -4.488580e-001 -8.936031e-001 -0.000000e+000
      outer loop
         vertex -5.500000e-003 -9.526280e-003 -3.114000e-001
         vertex -5.500000e-003 -9.526280e-003 -4.064000e-001
         vertex -3.762222e-003 -1.033662e-002 -4.064000e-001
      endloop
   endfacet
   facet normal -3.960194e-001 -9.182422e-001 -0.000000e+000
      outer loop
         vertex -5.500000e-003 -9.526280e-003 -3.114000e-001
         vertex -3.762222e-003 -1.033662e-002 -4.064000e-001
         vertex -3.762222e-003 -1.033662e-002 -3.114000e-001
      endloop
   endfacet
   facet normal -2.868663e-001 -9.579706e-001 -0.000000e+000
      outer loop
         vertex -3.762222e-003 -1.033662e-002 -3.114000e-001
         vertex -3.762222e-003 -1.033662e-002 -4.064000e-001
         vertex -1.910130e-003 -1.083289e-002 -4.064000e-001
      endloop
   endfacet
   facet normal -2.305519e-001 -9.730600e-001 -0.000000e+000
      outer loop
         vertex -3.762222e-003 -1.033662e-002 -3.114000e-001
         vertex -1.910130e-003 -1.083289e-002 -4.064000e-001
         vertex -1.910130e-003 -1.083289e-002 -3.114000e-001
      endloop
   endfacet
   facet normal -1.161583e-001 -9.932307e-001 -0.000000e+000
      outer loop
         vertex -1.910130e-003 -1.083289e-002 -3.114000e-001
         vertex -1.910130e-003 -1.083289e-002 -4.064000e-001
         vertex 0.000000e+000 -1.100000e-002 -4.064000e-001
      endloop
   endfacet
   facet normal -5.807914e-002 -9.983120e-001 -0.000000e+000
      outer loop
         vertex -1.910130e-003 -1.083289e-002 -3.114000e-001
         vertex 0.000000e+000 -1.100000e-002 -4.064000e-001
         vertex 0.000000e+000 -1.100000e-002 -3.114000e-001
      endloop
   endfacet
   facet normal 5.807914e-002 -9.983120e-001 0.000000e+000
      outer loop
         vertex 0.000000e+000 -1.100000e-002 -3.114000e-001
         vertex 0.000000e+000 -1.100000e-002 -4.064000e-001
         vertex 1.910130e-003 -1.083289e-002 -4.064000e-001
      endloop
   endfacet
   facet normal 0.000000e+000 0.000000e+000 -1.000000e+000
      outer loop
         vertex -3.762222e-003 1.033662e-002 -4.064000e-001
         vertex -1.910130e-003 1.083289e-002 -4.064000e-001
         vertex 0.000000e+000 0.000000e+000 -4.064000e-001
      endloop
   endfacet
   facet normal 0.000000e+000 0.000000e+000 -1.000000e+000
      outer loop
         vertex 0.000000e+000 0.000000e+000 -4.064000e-001
         vertex -1.910130e-003 1.083289e-002 -4.064000e-001
         vertex 1.347112e-018 1.100000e-002 -4.064000e-001
      endloop
   endfacet
   facet normal 0.000000e+000 0.000000e+000 -1.000000e+000
      outer loop
         vertex 0.000000e+000 0.000000e+000 -4.064000e-001
         vertex 1.347112e-018 1.100000e-002 -4.064000e-001
         vertex 1.910130e-003 1.083289e-002 -4.064000e-001
      endloop
   endfacet
   facet normal 0.000000e+000 0.000000e+000 -1.000000e+000
      outer loop
         vertex -8.426489e-003 7.070664e-003 -4.064000e-001
         vertex -7.070664e-003 8.426489e-003 -4.064000e-001
         vertex 0.000000e+000 0.000000e+000 -4.064000e-001
      endloop
   endfacet
   facet normal 0.000000e+000 0.000000e+000 -1.000000e+000
      outer loop
         vertex 0.000000e+000 0.000000e+000 -4.064000e-001
         vertex -7.070664e-003 8.426489e-003 -4.064000e-001
         vertex -5.500000e-003 9.526280e-003 -4.064000e-001
      endloop
   endfacet
   facet normal 0.000000e+000 0.000000e+000 -1.000000e+000
      outer loop
         vertex 0.000000e+000 0.000000e+000 -4.064000e-001
         vertex -5.500000e-003 9.526280e-003 -4.064000e-001
         vertex -3.762222e-003 1.033662e-002 -4.064000e-001
      endloop
   endfacet
   facet normal 0.000000e+000 0.000000e+000 -1.000000e+000
      outer loop
         vertex -1.083289e-002 1.910130e-003 -4.064000e-001
         vertex -1.033662e-002 3.762222e-003 -4.064000e-001
         vertex 0.000000e+000 0.000000e+000 -4.064000e-001
      endloop
   endfacet
   facet normal 0.000000e+000 0.000000e+000 -1.000000e+000
      outer loop
         vertex 0.000000e+000 0.000000e+000 -4.064000e-001
         vertex -1.033662e-002 3.762222e-003 -4.064000e-001
         vertex -9.526280e-003 5.500000e-003 -4.064000e-001
      endloop
   endfacet
   facet normal 0.000000e+000 0.000000e+000 -1.000000e+000
      outer loop
         vertex 0.000000e+000 0.000000e+000 -4.064000e-001
         vertex -9.526280e-003 5.500000e-003 -4.064000e-001
         vertex -8.426489e-003 7.070664e-003 -4.064000e-001
      endloop
   endfacet
   facet normal 0.000000e+000 0.000000e+000 -1.000000e+000
      outer loop
         vertex -1.033662e-002 -3.762222e-003 -4.064000e-001
         vertex -1.083289e-002 -1.910130e-003 -4.064000e-001
         vertex 0.000000e+000 0.000000e+000 -4.064000e-001
      endloop
   endfacet
   facet normal 0.000000e+000 0.000000e+000 -1.000000e+000
      outer loop
         vertex 0.000000e+000 0.000000e+000 -4.064000e-001
         vertex -1.083289e-002 -1.910130e-003 -4.064000e-001
         vertex -1.100000e-002 2.020667e-018 -4.064000e-001
      endloop
   endfacet
   facet normal 0.000000e+000 0.000000e+000 -1.000000e+000
      outer loop
         vertex 0.000000e+000 0.000000e+000 -4.064000e-001
         vertex -1.100000e-002 2.020667e-018 -4.064000e-001
         vertex -1.083289e-002 1.910130e-003 -4.064000e-001
      endloop
   endfacet
   facet normal 0.000000e+000 0.000000e+000 -1.000000e+000
      outer loop
         vertex -7.070664e-003 -8.426489e-003 -4.064000e-001
         vertex -8.426489e-003 -7.070664e-003 -4.064000e-001
         vertex 0.000000e+000 0.000000e+000 -4.064000e-001
      endloop
   endfacet
   facet normal 0.000000e+000 0.000000e+000 -1.000000e+000
      outer loop
         vertex 0.000000e+000 0.000000e+000 -4.064000e-001
         vertex -8.426489e-003 -7.070664e-003 -4.064000e-001
         vertex -9.526280e-003 -5.500000e-003 -4.064000e-001
      endloop
   endfacet
   facet normal 0.000000e+000 0.000000e+000 -1.000000e+000
      outer loop
         vertex 0.000000e+000 0.000000e+000 -4.064000e-001
         vertex -9.526280e-003 -5.500000e-003 -4.064000e-001
         vertex -1.033662e-002 -3.762222e-003 -4.064000e-001
      endloop
   endfacet
   facet normal 0.000000e+000 0.000000e+000 -1.000000e+000
      outer loop
         vertex -1.910130e-003 -1.083289e-002 -4.064000e-001
         vertex -3.762222e-003 -1.033662e-002 -4.064000e-001
         vertex 0.000000e+000 0.000000e+000 -4.064000e-001
      endloop
   endfacet
   facet normal 0.000000e+000 0.000000e+000 -1.000000e+000
      outer loop
         vertex 0.000000e+000 0.000000e+000 -4.064000e-001
         vertex -3.762222e-003 -1.033662e-002 -4.064000e-001
         vertex -5.500000e-003 -9.526280e-003 -4.064000e-001
      endloop
   endfacet
   facet normal 0.000000e+000 0.000000e+000 -1.000000e+000
      outer loop
         vertex 0.000000e+000 0.000000e+000 -4.064000e-001
         vertex -5.500000e-003 -9.526280e-003 -4.064000e-001
         vertex -7.070664e-003 -8.426489e-003 -4.064000e-001
      endloop
   endfacet
   facet normal 0.000000e+000 0.000000e+000 -1.000000e+000
      outer loop
         vertex 3.762222e-003 -1.033662e-002 -4.064000e-001
         vertex 1.910130e-003 -1.083289e-002 -4.064000e-001
         vertex 0.000000e+000 0.000000e+000 -4.064000e-001
      endloop
   endfacet
   facet normal 0.000000e+000 0.000000e+000 -1.000000e+000
      outer loop
         vertex 0.000000e+000 0.000000e+000 -4.064000e-001
         vertex 1.910130e-003 -1.083289e-002 -4.064000e-001
         vertex 0.000000e+000 -1.100000e-002 -4.064000e-001
      endloop
   endfacet
   facet normal 0.000000e+000 0.000000e+000 -1.000000e+000
      outer loop
         vertex 0.000000e+000 0.000000e+000 -4.064000e-001
         vertex 0.000000e+000 -1.100000e-002 -4.064000e-001
         vertex -1.910130e-003 -1.083289e-002 -4.064000e-001
      endloop
   endfacet
   facet normal 0.000000e+000 0.000000e+000 -1.000000e+000
      outer loop
         vertex 8.426489e-003 -7.070664e-003 -4.064000e-001
         vertex 7.070664e-003 -8.426489e-003 -4.064000e-001
         vertex 0.000000e+000 0.000000e+000 -4.064000e-001
      endloop
   endfacet
   facet normal 0.000000e+000 0.000000e+000 -1.000000e+000
      outer loop
         vertex 0.000000e+000 0.000000e+000 -4.064000e-001
         vertex 7.070664e-003 -8.426489e-003 -4.064000e-001
         vertex 5.500000e-003 -9.526280e-003 -4.064000e-001
      endloop
   endfacet
   facet normal 0.000000e+000 0.000000e+000 -1.000000e+000
      outer loop
         vertex 0.000000e+000 0.000000e+000 -4.064000e-001
         vertex 5.500000e-003 -9.526280e-003 -4.064000e-001
         vertex 3.762222e-003 -1.033662e-002 -4.064000e-001
      endloop
   endfacet
   facet normal 0.000000e+000 0.000000e+000 -1.000000e+000
      outer loop
         vertex 1.083289e-002 -1.910130e-003 -4.064000e-001
         vertex 1.033662e-002 -3.762222e-003 -4.064000e-001
         vertex 0.000000e+000 0.000000e+000 -4.064000e-001
      endloop
   endfacet
   facet normal 0.000000e+000 0.000000e+000 -1.000000e+000
      outer loop
         vertex 0.000000e+000 0.000000e+000 -4.064000e-001
         vertex 1.033662e-002 -3.762222e-003 -4.064000e-001
         vertex 9.526280e-003 -5.500000e-003 -4.064000e-001
      endloop
   endfacet
   facet normal 0.000000e+000 0.000000e+000 -1.000000e+000
      outer loop
         vertex 0.000000e+000 0.000000e+000 -4.064000e-001
         vertex 9.526280e-003 -5.500000e-003 -4.064000e-001
         vertex 8.426489e-003 -7.070664e-003 -4.064000e-001
      endloop
   endfacet
   facet normal 0.000000e+000 0.000000e+000 -1.000000e+000
      outer loop
         vertex 1.033662e-002 3.762222e-003 -4.064000e-001
         vertex 1.083289e-002 1.910130e-003 -4.064000e-001
         vertex 0.000000e+000 0.000000e+000 -4.064000e-001
      endloop
   endfacet
   facet normal 0.000000e+000 0.000000e+000 -1.000000e+000
      outer loop
         vertex 0.000000e+000 0.000000e+000 -4.064000e-001
         vertex 1.083289e-002 1.910130e-003 -4.064000e-001
         vertex 1.100000e-002 -6.735558e-019 -4.064000e-001
      endloop
   endfacet
   facet normal 0.000000e+000 0.000000e+000 -1.000000e+000
      outer loop
         vertex 0.000000e+000 0.000000e+000 -4.064000e-001
         vertex 1.100000e-002 -6.735558e-019 -4.064000e-001
         vertex 1.083289e-002 -1.910130e-003 -4.064000e-001
      endloop
   endfacet
   facet normal 0.000000e+000 0.000000e+000 -1.000000e+000
      outer loop
         vertex 7.070664e-003 8.426489e-003 -4.064000e-001
         vertex 8.426489e-003 7.070664e-003 -4.064000e-001
         vertex 0.000000e+000 0.000000e+000 -4.064000e-001
      endloop
   endfacet
   facet normal 0.000000e+000 0.000000e+000 -1.000000e+000
      outer loop
         vertex 0.000000e+000 0.000000e+000 -4.064000e-001
         vertex 8.426489e-003 7.070664e-003 -4.064000e-001
         vertex 9.526280e-003 5.500000e-003 -4.064000e-001
      endloop
   endfacet
   facet normal 0.000000e+000 0.000000e+000 -1.000000e+000
      outer loop
         vertex 0.000000e+000 0.000000e+000 -4.064000e-001
         vertex 9.526280e-003 5.500000e-003 -4.064000e-001
         vertex 1.033662e-002 3.762222e-003 -4.064000e-001
      endloop
   endfacet
   facet normal 0.000000e+000 0.000000e+000 -1.000000e+000
      outer loop
         vertex 1.910130e-003 1.083289e-002 -4.064000e-001
         vertex 3.762222e-003 1.033662e-002 -4.064000e-001
         vertex 0.000000e+000 0.000000e+000 -4.064000e-001
      endloop
   endfacet
   facet normal 0.000000e+000 0.000000e+000 -1.000000e+000
      outer loop
         vertex 0.000000e+000 0.000000e+000 -4.064000e-001
         vertex 3.762222e-003 1.033662e-002 -4.064000e-001
         vertex 5.500000e-003 9.526280e-003 -4.064000e-001
      endloop
   endfacet
   facet normal 0.000000e+000 0.000000e+000 -1.000000e+000
      outer loop
         vertex 0.000000e+000 0.000000e+000 -4.064000e-001
         vertex 5.500000e-003 9.526280e-003 -4.064000e-001
         vertex 7.070664e-003 8.426489e-003 -4.064000e-001
      endloop
   endfacet
   facet normal 0.000000e+000 0.000000e+000 1.000000e+000
      outer loop
         vertex 3.762222e-003 1.033662e-002 -3.114000e-001
         vertex 1.910130e-003 1.083289e-002 -3.114000e-001
         vertex 0.000000e+000 0.000000e+000 -3.114000e-001
      endloop
   endfacet
   facet normal 0.000000e+000 0.000000e+000 1.000000e+000
      outer loop
         vertex 0.000000e+000 0.000000e+000 -3.114000e-001
         vertex 1.910130e-003 1.083289e-002 -3.114000e-001
         vertex 4.041334e-018 1.100000e-002 -3.114000e-001
      endloop
   endfacet
   facet normal 0.000000e+000 0.000000e+000 1.000000e+000
      outer loop
         vertex 0.000000e+000 0.000000e+000 -3.114000e-001
         vertex 4.041334e-018 1.100000e-002 -3.114000e-001
         vertex -1.910130e-003 1.083289e-002 -3.114000e-001
      endloop
   endfacet
   facet normal 0.000000e+000 0.000000e+000 1.000000e+000
      outer loop
         vertex 8.426489e-003 7.070664e-003 -3.114000e-001
         vertex 7.070664e-003 8.426489e-003 -3.114000e-001
         vertex 0.000000e+000 0.000000e+000 -3.114000e-001
      endloop
   endfacet
   facet normal 0.000000e+000 0.000000e+000 1.000000e+000
      outer loop
         vertex 0.000000e+000 0.000000e+000 -3.114000e-001
         vertex 7.070664e-003 8.426489e-003 -3.114000e-001
         vertex 5.500000e-003 9.526280e-003 -3.114000e-001
      endloop
   endfacet
   facet normal 0.000000e+000 0.000000e+000 1.000000e+000
      outer loop
         vertex 0.000000e+000 0.000000e+000 -3.114000e-001
         vertex 5.500000e-003 9.526280e-003 -3.114000e-001
         vertex 3.762222e-003 1.033662e-002 -3.114000e-001
      endloop
   endfacet
   facet normal 0.000000e+000 0.000000e+000 1.000000e+000
      outer loop
         vertex 1.083289e-002 1.910130e-003 -3.114000e-001
         vertex 1.033662e-002 3.762222e-003 -3.114000e-001
         vertex 0.000000e+000 0.000000e+000 -3.114000e-001
      endloop
   endfacet
   facet normal 0.000000e+000 0.000000e+000 1.000000e+000
      outer loop
         vertex 0.000000e+000 0.000000e+000 -3.114000e-001
         vertex 1.033662e-002 3.762222e-003 -3.114000e-001
         vertex 9.526280e-003 5.500000e-003 -3.114000e-001
      endloop
   endfacet
   facet normal 0.000000e+000 0.000000e+000 1.000000e+000
      outer loop
         vertex 0.000000e+000 0.000000e+000 -3.114000e-001
         vertex 9.526280e-003 5.500000e-003 -3.114000e-001
         vertex 8.426489e-003 7.070664e-003 -3.114000e-001
      endloop
   endfacet
   facet normal 0.000000e+000 0.000000e+000 1.000000e+000
      outer loop
         vertex 1.033662e-002 -3.762222e-003 -3.114000e-001
         vertex 1.083289e-002 -1.910130e-003 -3.114000e-001
         vertex 0.000000e+000 0.000000e+000 -3.114000e-001
      endloop
   endfacet
   facet normal 0.000000e+000 0.000000e+000 1.000000e+000
      outer loop
         vertex 0.000000e+000 0.000000e+000 -3.114000e-001
         vertex 1.083289e-002 -1.910130e-003 -3.114000e-001
         vertex 1.100000e-002 -6.735558e-019 -3.114000e-001
      endloop
   endfacet
   facet normal 0.000000e+000 0.000000e+000 1.000000e+000
      outer loop
         vertex 0.000000e+000 0.000000e+000 -3.114000e-001
         vertex 1.100000e-002 -6.735558e-019 -3.114000e-001
         vertex 1.083289e-002 1.910130e-003 -3.114000e-001
      endloop
   endfacet
   facet normal 0.000000e+000 0.000000e+000 1.000000e+000
      outer loop
         vertex 7.070664e-003 -8.426489e-003 -3.114000e-001
         vertex 8.426489e-003 -7.070664e-003 -3.114000e-001
         vertex 0.000000e+000 0.000000e+000 -3.114000e-001
      endloop
   endfacet
   facet normal 0.000000e+000 0.000000e+000 1.000000e+000
      outer loop
         vertex 0.000000e+000 0.000000e+000 -3.114000e-001
         vertex 8.426489e-003 -7.070664e-003 -3.114000e-001
         vertex 9.526280e-003 -5.500000e-003 -3.114000e-001
      endloop
   endfacet
   facet normal 0.000000e+000 0.000000e+000 1.000000e+000
      outer loop
         vertex 0.000000e+000 0.000000e+000 -3.114000e-001
         vertex 9.526280e-003 -5.500000e-003 -3.114000e-001
         vertex 1.033662e-002 -3.762222e-003 -3.114000e-001
      endloop
   endfacet
   facet normal 0.000000e+000 0.000000e+000 1.000000e+000
      outer loop
         vertex 1.910130e-003 -1.083289e-002 -3.114000e-001
         vertex 3.762222e-003 -1.033662e-002 -3.114000e-001
         vertex 0.000000e+000 0.000000e+000 -3.114000e-001
      endloop
   endfacet
   facet normal 0.000000e+000 0.000000e+000 1.000000e+000
      outer loop
         vertex 0.000000e+000 0.000000e+000 -3.114000e-001
         vertex 3.762222e-003 -1.033662e-002 -3.114000e-001
         vertex 5.500000e-003 -9.526280e-003 -3.114000e-001
      endloop
   endfacet
   facet normal 0.000000e+000 0.000000e+000 1.000000e+000
      outer loop
         vertex 0.000000e+000 0.000000e+000 -3.114000e-001
         vertex 5.500000e-003 -9.526280e-003 -3.114000e-001
         vertex 7.070664e-003 -8.426489e-003 -3.114000e-001
      endloop
   endfacet
   facet normal 0.000000e+000 0.000000e+000 1.000000e+000
      outer loop
         vertex -3.762222e-003 -1.033662e-002 -3.114000e-001
         vertex -1.910130e-003 -1.083289e-002 -3.114000e-001
         vertex 0.000000e+000 0.000000e+000 -3.114000e-001
      endloop
   endfacet
   facet normal 0.000000e+000 0.000000e+000 1.000000e+000
      outer loop
         vertex 0.000000e+000 0.000000e+000 -3.114000e-001
         vertex -1.910130e-003 -1.083289e-002 -3.114000e-001
         vertex 0.000000e+000 -1.100000e-002 -3.114000e-001
      endloop
   endfacet
   facet normal 0.000000e+000 0.000000e+000 1.000000e+000
      outer loop
         vertex 0.000000e+000 0.000000e+000 -3.114000e-001
         vertex 0.000000e+000 -1.100000e-002 -3.114000e-001
         vertex 1.910130e-003 -1.083289e-002 -3.114000e-001
      endloop
   endfacet
   facet normal 0.000000e+000 0.000000e+000 1.000000e+000
      outer loop
         vertex -8.426489e-003 -7.070664e-003 -3.114000e-001
         vertex -7.070664e-003 -8.426489e-003 -3.114000e-001
         vertex 0.000000e+000 0.000000e+000 -3.114000e-001
      endloop
   endfacet
   facet normal 0.000000e+000 0.000000e+000 1.000000e+000
      outer loop
         vertex 0.000000e+000 0.000000e+000 -3.114000e-001
         vertex -7.070664e-003 -8.426489e-003 -3.114000e-001
         vertex -5.500000e-003 -9.526280e-003 -3.114000e-001
      endloop
   endfacet
   facet normal 0.000000e+000 0.000000e+000 1.000000e+000
      outer loop
         vertex 0.000000e+000 0.000000e+000 -3.114000e-001
         vertex -5.500000e-003 -9.526280e-003 -3.114000e-001
         vertex -3.762222e-003 -1.033662e-002 -3.114000e-001
      endloop
   endfacet
   facet normal 0.000000e+000 0.000000e+000 1.000000e+000
      outer loop
         vertex -1.083289e-002 -1.910130e-003 -3.114000e-001
         vertex -1.033662e-002 -3.762222e-003 -3.114000e-001
         vertex 0.000000e+000 0.000000e+000 -3.114000e-001
      endloop
   endfacet
   facet normal 0.000000e+000 0.000000e+000 1.000000e+000
      outer loop
         vertex 0.000000e+000 0.000000e+000 -3.114000e-001
         vertex -1.033662e-002 -3.762222e-003 -3.114000e-001
         vertex -9.526280e-003 -5.500000e-003 -3.114000e-001
      endloop
   endfacet
   facet normal 0.000000e+000 0.000000e+000 1.000000e+000
      outer loop
         vertex 0.000000e+000 0.000000e+000 -3.114000e-001
         vertex -9.526280e-003 -5.500000e-003 -3.114000e-001
         vertex -8.426489e-003 -7.070664e-003 -3.114000e-001
      endloop
   endfacet
   facet normal 0.000000e+000 0.000000e+000 1.000000e+000
      outer loop
         vertex -1.033662e-002 3.762222e-003 -3.114000e-001
         vertex -1.083289e-002 1.910130e-003 -3.114000e-001
         vertex 0.000000e+000 0.000000e+000 -3.114000e-001
      endloop
   endfacet
   facet normal 0.000000e+000 0.000000e+000 1.000000e+000
      outer loop
         vertex 0.000000e+000 0.000000e+000 -3.114000e-001
         vertex -1.083289e-002 1.910130e-003 -3.114000e-001
         vertex -1.100000e-002 2.020667e-018 -3.114000e-001
      endloop
   endfacet
   facet normal 0.000000e+000 0.000000e+000 1.000000e+000
      outer loop
         vertex 0.000000e+000 0.000000e+000 -3.114000e-001
         vertex -1.100000e-002 2.020667e-018 -3.114000e-001
         vertex -1.083289e-002 -1.910130e-003 -3.114000e-001
      endloop
   endfacet
   facet normal 0.000000e+000 0.000000e+000 1.000000e+000
      outer loop
         vertex -7.070664e-003 8.426489e-003 -3.114000e-001
         vertex -8.426489e-003 7.070664e-003 -3.114000e-001
         vertex 0.000000e+000 0.000000e+000 -3.114000e-001
      endloop
   endfacet
   facet normal 0.000000e+000 0.000000e+000 1.000000e+000
      outer loop
         vertex 0.000000e+000 0.000000e+000 -3.114000e-001
         vertex -8.426489e-003 7.070664e-003 -3.114000e-001
         vertex -9.526280e-003 5.500000e-003 -3.114000e-001
      endloop
   endfacet
   facet normal 0.000000e+000 0.000000e+000 1.000000e+000
      outer loop
         vertex 0.000000e+000 0.000000e+000 -3.114000e-001
         vertex -9.526280e-003 5.500000e-003 -3.114000e-001
         vertex -1.033662e-002 3.762222e-003 -3.114000e-001
      endloop
   endfacet
   facet normal 0.000000e+000 0.000000e+000 1.000000e+000
      outer loop
         vertex -1.910130e-003 1.083289e-002 -3.114000e-001
         vertex -3.762222e-003 1.033662e-002 -3.114000e-001
         vertex 0.000000e+000 0.000000e+000 -3.114000e-001
      endloop
   endfacet
   facet normal 0.000000e+000 0.000000e+000 1.000000e+000
      outer loop
         vertex 0.000000e+000 0.000000e+000 -3.114000e-001
         vertex -3.762222e-003 1.033662e-002 -3.114000e-001
         vertex -5.500000e-003 9.526280e-003 -3.114000e-001
      endloop
   endfacet
   facet normal 0.000000e+000 0.000000e+000 1.000000e+000
      outer loop
         vertex 0.000000e+000 0.000000e+000 -3.114000e-001
         vertex -5.500000e-003 9.526280e-003 -3.114000e-001
         vertex -7.070664e-003 8.426489e-003 -3.114000e-001
      endloop
   endfacet
endsolid