solid axis_arrow
   facet normal 3.437238e-001 9.390708e-001 0.000000e+000
      outer loop
         vertex 0.000000e+000 2.000000e-003 0.000000e+000
         vertex 1.000000e-003 1.732051e-003 1.000000e-001
         vertex 1.000000e-003 1.732051e-003 0.000000e+000
      endloop
   endfacet
   facet normal 6.413973e-001 7.672089e-001 0.000000e+000
      outer loop
         vertex 1.000000e-003 1.732051e-003 0.000000e+000
         vertex 1.000000e-003 1.732051e-003 1.000000e-001
         vertex 1.732051e-003 1.000000e-003 1.000000e-001
      endloop
   endfacet
   facet normal 7.672089e-001 6.413973e-001 0.000000e+000
      outer loop
         vertex 1.000000e-003 1.732051e-003 0.000000e+000
         vertex 1.732051e-003 1.000000e-003 1.000000e-001
         vertex 1.732051e-003 1.000000e-003 0.000000e+000
      endloop
   endfacet
   facet normal 9.390708e-001 3.437238e-001 0.000000e+000
      outer loop
         vertex 1.732051e-003 1.000000e-003 0.000000e+000
         vertex 1.732051e-003 1.000000e-003 1.000000e-001
         vertex 2.000000e-003 5.665539e-019 1.000000e-001
      endloop
   endfacet
   facet normal 9.851211e-001 1.718619e-001 0.000000e+000
      outer loop
         vertex 1.732051e-003 1.000000e-003 0.000000e+000
         vertex 2.000000e-003 5.665539e-019 1.000000e-001
         vertex 2.000000e-003 5.665539e-019 0.000000e+000
      endloop
   endfacet
   facet normal 9.851211e-001 -1.718619e-001 0.000000e+000
      outer loop
         vertex 2.000000e-003 5.665539e-019 0.000000e+000
         vertex 2.000000e-003 5.665539e-019 1.000000e-001
         vertex 1.732051e-003 -1.000000e-003 1.000000e-001
      endloop
   endfacet
   facet normal 9.390708e-001 -3.437238e-001 0.000000e+000
      outer loop
         vertex 2.000000e-003 5.665539e-019 0.000000e+000
         vertex 1.732051e-003 -1.000000e-003 1.000000e-001
         vertex 1.732051e-003 -1.000000e-003 0.000000e+000
      endloop
   endfacet
   facet normal 7.672089e-001 -6.413973e-001 0.000000e+000
      outer loop
         vertex 1.732051e-003 -1.000000e-003 0.000000e+000
         vertex 1.732051e-003 -1.000000e-003 1.000000e-001
         vertex 1.000000e-003 -1.732051e-003 1.000000e-001
      endloop
   endfacet
   facet normal 6.413973e-001 -7.672089e-001 0.000000e+000
      outer loop
         vertex 1.732051e-003 -1.000000e-003 0.000000e+000
         vertex 1.000000e-003 -1.732051e-003 1.000000e-001
         vertex 1.000000e-003 -1.732051e-003 0.000000e+000
      endloop
   endfacet
   facet normal 3.437238e-001 -9.390708e-001 0.000000e+000
      outer loop
         vertex 1.000000e-003 -1.732051e-003 0.000000e+000
         vertex 1.000000e-003 -1.732051e-003 1.000000e-001
         vertex 1.133108e-018 -2.000000e-003 1.000000e-001
      endloop
   endfacet
   facet normal 1.718619e-001 -9.851211e-001 0.000000e+000
      outer loop
         vertex 1.000000e-003 -1.732051e-003 0.000000e+000
         vertex 1.133108e-018 -2.000000e-003 1.000000e-001
         vertex 1.133108e-018 -2.000000e-003 0.000000e+000
      endloop
   endfacet
   facet normal -1.718619e-001 -9.851211e-001 0.000000e+000
      outer loop
         vertex 1.133108e-018 -2.000000e-003 0.000000e+000
         vertex 1.133108e-018 -2.000000e-003 1.000000e-001
         vertex -1.000000e-003 -1.732051e-003 1.000000e-001
      endloop
   endfacet
   facet normal -3.437238e-001 -9.390708e-001 0.000000e+000
      outer loop
         vertex 1.133108e-018 -2.000000e-003 0.000000e+000
         vertex -1.000000e-003 -1.732051e-003 1.000000e-001
         vertex -1.000000e-003 -1.732051e-003 0.000000e+000
      endloop
   endfacet
   facet normal -6.413973e-001 -7.672089e-001 0.000000e+000
      outer loop
         vertex -1.000000e-003 -1.732051e-003 0.000000e+000
         vertex -1.000000e-003 -1.732051e-003 1.000000e-001
         vertex -1.732051e-003 -1.000000e-003 1.000000e-001
      endloop
   endfacet
   facet normal -7.672089e-001 -6.413973e-001 0.000000e+000
      outer loop
         vertex -1.000000e-003 -1.732051e-003 0.000000e+000
         vertex -1.732051e-003 -1.000000e-003 1.000000e-001
         vertex -1.732051e-003 -1.000000e-003 0.000000e+000
      endloop
   endfacet
   facet normal -9.390708e-001 -3.437238e-001 0.000000e+000
      outer loop
         vertex -1.732051e-003 -1.000000e-003 0.000000e+000
         vertex -1.732051e-003 -1.000000e-003 1.000000e-001
         vertex -2.000000e-003 -2.143751e-018 1.000000e-001
      endloop
   endfacet
   facet normal -9.851211e-001 -1.718619e-001 0.000000e+000
      outer loop
         vertex -1.732051e-003 -1.000000e-003 0.000000e+000
         vertex -2.000000e-003 -2.143751e-018 1.000000e-001
         vertex -2.000000e-003 -2.143751e-018 0.000000e+000
      endloop
   endfacet
   facet normal -9.851211e-001 1.718619e-001 0.000000e+000
      outer loop
         vertex -2.000000e-003 -2.143751e-018 0.000000e+000
         vertex -2.000000e-003 -2.143751e-018 1.000000e-001
         vertex -1.732051e-003 1.000000e-003 1.000000e-001
      endloop
   endfacet
   facet normal -9.390708e-001 3.437238e-001 0.000000e+000
      outer loop
         vertex -2.000000e-003 -2.143751e-018 0.000000e+000
         vertex -1.732051e-003 1.000000e-003 1.000000e-001
         vertex -1.732051e-003 1.000000e-003 0.000000e+000
      endloop
   endfacet
   facet normal -7.672089e-001 6.413973e-001 0.000000e+000
      outer loop
         vertex -1.732051e-003 1.000000e-003 0.000000e+000
         vertex -1.732051e-003 1.000000e-003 1.000000e-001
         vertex -1.000000e-003 1.732051e-003 1.000000e-001
      endloop
   endfacet
   facet normal -6.413973e-001 7.672089e-001 0.000000e+000
      outer loop
         vertex -1.732051e-003 1.000000e-003 0.000000e+000
         vertex -1.000000e-003 1.732051e-003 1.000000e-001
         vertex -1.000000e-003 1.732051e-003 0.000000e+000
      endloop
   endfacet
   facet normal -3.437238e-001 9.390708e-001 0.000000e+000
      outer loop
         vertex -1.000000e-003 1.732051e-003 0.000000e+000
         vertex -1.000000e-003 1.732051e-003 1.000000e-001
         vertex 0.000000e+000 2.000000e-003 1.000000e-001
      endloop
   endfacet
   facet normal -1.718619e-001 9.851211e-001 0.000000e+000
      outer loop
         vertex -1.000000e-003 1.732051e-003 0.000000e+000
         vertex 0.000000e+000 2.000000e-003 1.000000e-001
         vertex 0.000000e+000 2.000000e-003 0.000000e+000
      endloop
   endfacet
   facet normal 1.718619e-001 9.851211e-001 0.000000e+000
      outer loop
         vertex 0.000000e+000 2.000000e-003 0.000000e+000
         vertex 0.000000e+000 2.000000e-003 1.000000e-001
         vertex 1.000000e-003 1.732051e-003 1.000000e-001
      endloop
   endfacet
   facet normal 0.000000e+000 0.000000e+000 -1.000000e+000
      outer loop
         vertex 1.732051e-003 -1.000000e-003 0.000000e+000
         vertex 1.000000e-003 -1.732051e-003 0.000000e+000
         vertex 0.000000e+000 0.000000e+000 0.000000e+000
      endloop
   endfacet
   facet normal 0.000000e+000 0.000000e+000 -1.000000e+000
      outer loop
         vertex 0.000000e+000 0.000000e+000 0.000000e+000
         vertex 1.000000e-003 -1.732051e-003 0.000000e+000
         vertex 7.347881e-019 -2.000000e-003 0.000000e+000
      endloop
   endfacet
   facet normal 0.000000e+000 0.000000e+000 -1.000000e+000
      outer loop
         vertex 0.000000e+000 0.000000e+000 0.000000e+000
         vertex 7.347881e-019 -2.000000e-003 0.000000e+000
         vertex -1.000000e-003 -1.732051e-003 0.000000e+000
      endloop
   endfacet
   facet normal 0.000000e+000 0.000000e+000 -1.000000e+000
      outer loop
         vertex 1.000000e-003 1.732051e-003 0.000000e+000
         vertex 1.732051e-003 1.000000e-003 0.000000e+000
         vertex 0.000000e+000 0.000000e+000 0.000000e+000
      endloop
   endfacet
   facet normal 0.000000e+000 0.000000e+000 -1.000000e+000
      outer loop
         vertex 0.000000e+000 0.000000e+000 0.000000e+000
         vertex 1.732051e-003 1.000000e-003 0.000000e+000
         vertex 2.000000e-003 5.665539e-019 0.000000e+000
      endloop
   endfacet
   facet normal 0.000000e+000 0.000000e+000 -1.000000e+000
      outer loop
         vertex 0.000000e+000 0.000000e+000 0.000000e+000
         vertex 2.000000e-003 5.665539e-019 0.000000e+000
         vertex 1.732051e-003 -1.000000e-003 0.000000e+000
      endloop
   endfacet
   facet normal 0.000000e+000 0.000000e+000 -1.000000e+000
      outer loop
         vertex -1.732051e-003 1.000000e-003 0.000000e+000
         vertex -1.000000e-003 1.732051e-003 0.000000e+000
         vertex 0.000000e+000 0.000000e+000 0.000000e+000
      endloop
   endfacet
   facet normal 0.000000e+000 0.000000e+000 -1.000000e+000
      outer loop
         vertex 0.000000e+000 0.000000e+000 0.000000e+000
         vertex -1.000000e-003 1.732051e-003 0.000000e+000
         vertex 0.000000e+000 2.000000e-003 0.000000e+000
      endloop
   endfacet
   facet normal 0.000000e+000 0.000000e+000 -1.000000e+000
      outer loop
         vertex 0.000000e+000 0.000000e+000 0.000000e+000
         vertex 0.000000e+000 2.000000e-003 0.000000e+000
         vertex 1.000000e-003 1.732051e-003 0.000000e+000
      endloop
   endfacet
   facet normal 0.000000e+000 0.000000e+000 -1.000000e+000
      outer loop
         vertex -1.000000e-003 -1.732051e-003 0.000000e+000
         vertex -1.732051e-003 -1.000000e-003 0.000000e+000
         vertex 0.000000e+000 0.000000e+000 0.000000e+000
      endloop
   endfacet
   facet normal 0.000000e+000 0.000000e+000 -1.000000e+000
      outer loop
         vertex 0.000000e+000 0.000000e+000 0.000000e+000
         vertex -1.732051e-003 -1.000000e-003 0.000000e+000
         vertex -2.000000e-003 -2.143751e-018 0.000000e+000
      endloop
   endfacet
   facet normal 0.000000e+000 0.000000e+000 -1.000000e+000
      outer loop
         vertex 0.000000e+000 0.000000e+000 0.000000e+000
         vertex -2.000000e-003 -2.143751e-018 0.000000e+000
         vertex -1.732051e-003 1.000000e-003 0.000000e+000
      endloop
   endfacet
   facet normal 2.839488e-001 7.453424e-001 6.031897e-001
      outer loop
         vertex 7.793759e-003 1.281629e-002 1.000000e-001
         vertex 4.046951e-003 1.444376e-002 1.000000e-001
         vertex 0.000000e+000 1.734723e-018 1.200000e-001
      endloop
   endfacet
   facet normal 4.745102e-001 6.410946e-001 6.031896e-001
      outer loop
         vertex 7.793759e-003 1.281629e-002 1.000000e-001
         vertex 0.000000e+000 1.734723e-018 1.200000e-001
         vertex 1.096254e-002 1.023830e-002 1.000000e-001
      endloop
   endfacet
   facet normal 6.298794e-001 4.892997e-001 6.031896e-001
      outer loop
         vertex 1.331828e-002 6.900975e-003 1.000000e-001
         vertex 1.096254e-002 1.023830e-002 1.000000e-001
         vertex 0.000000e+000 1.734723e-018 1.200000e-001
      endloop
   endfacet
   facet normal 7.385332e-001 3.012158e-001 6.031896e-001
      outer loop
         vertex 1.468626e-002 3.051840e-003 1.000000e-001
         vertex 1.331828e-002 6.900975e-003 1.000000e-001
         vertex 0.000000e+000 1.734723e-018 1.200000e-001
      endloop
   endfacet
   facet normal 7.924135e-001 9.079201e-002 6.031896e-001
      outer loop
         vertex 1.496503e-002 -1.023636e-003 1.000000e-001
         vertex 1.468626e-002 3.051840e-003 1.000000e-001
         vertex 0.000000e+000 1.734723e-018 1.200000e-001
      endloop
   endfacet
   facet normal 7.875240e-001 -1.263654e-001 6.031896e-001
      outer loop
         vertex 1.413391e-002 -5.023194e-003 1.000000e-001
         vertex 1.496503e-002 -1.023636e-003 1.000000e-001
         vertex 0.000000e+000 1.734723e-018 1.200000e-001
      endloop
   endfacet
   facet normal 7.242275e-001 -3.341509e-001 6.031897e-001
      outer loop
         vertex 1.225455e-002 -8.650205e-003 1.000000e-001
         vertex 1.413391e-002 -5.023194e-003 1.000000e-001
         vertex 0.000000e+000 1.734723e-018 1.200000e-001
      endloop
   endfacet
   facet normal 6.072184e-001 -5.171539e-001 6.031896e-001
      outer loop
         vertex 9.466319e-003 -1.163567e-002 1.000000e-001
         vertex 1.225455e-002 -8.650205e-003 1.000000e-001
         vertex 0.000000e+000 1.734723e-018 1.200000e-001
      endloop
   endfacet
   facet normal 4.451746e-001 -6.618019e-001 6.031896e-001
      outer loop
         vertex 5.976016e-003 -1.375817e-002 1.000000e-001
         vertex 9.466319e-003 -1.163567e-002 1.000000e-001
         vertex 0.000000e+000 1.734723e-018 1.200000e-001
      endloop
   endfacet
   facet normal 2.501143e-001 -7.573673e-001 6.031896e-001
      outer loop
         vertex 2.042500e-003 -1.486029e-002 1.000000e-001
         vertex 5.976016e-003 -1.375817e-002 1.000000e-001
         vertex 0.000000e+000 1.734723e-018 1.200000e-001
      endloop
   endfacet
   facet normal 3.650414e-002 -7.967620e-001 6.031896e-001
      outer loop
         vertex -2.042500e-003 -1.486029e-002 1.000000e-001
         vertex 2.042500e-003 -1.486029e-002 1.000000e-001
         vertex 0.000000e+000 1.734723e-018 1.200000e-001
      endloop
   endfacet
   facet normal -1.798133e-001 -7.770646e-001 6.031896e-001
      outer loop
         vertex -5.976016e-003 -1.375817e-002 1.000000e-001
         vertex -2.042500e-003 -1.486029e-002 1.000000e-001
         vertex 0.000000e+000 1.734723e-018 1.200000e-001
      endloop
   endfacet
   facet normal -3.827949e-001 -6.997359e-001 6.031897e-001
      outer loop
         vertex -9.466319e-003 -1.163567e-002 1.000000e-001
         vertex -5.976016e-003 -1.375817e-002 1.000000e-001
         vertex 0.000000e+000 1.734723e-018 1.200000e-001
      endloop
   endfacet
   facet normal -5.573863e-001 -5.705110e-001 6.031896e-001
      outer loop
         vertex -1.225455e-002 -8.650205e-003 1.000000e-001
         vertex -9.466319e-003 -1.163567e-002 1.000000e-001
         vertex 0.000000e+000 1.734723e-018 1.200000e-001
      endloop
   endfacet
   facet normal -6.906389e-001 -3.989738e-001 6.031896e-001
      outer loop
         vertex -1.413391e-002 -5.023194e-003 1.000000e-001
         vertex -1.225455e-002 -8.650205e-003 1.000000e-001
         vertex 0.000000e+000 1.734723e-018 1.200000e-001
      endloop
   endfacet
   facet normal -7.726700e-001 -1.978466e-001 6.031896e-001
      outer loop
         vertex -1.496503e-002 -1.023636e-003 1.000000e-001
         vertex -1.413391e-002 -5.023194e-003 1.000000e-001
         vertex 0.000000e+000 1.734723e-018 1.200000e-001
      endloop
   endfacet
   facet normal -7.973957e-001 1.795392e-002 6.031896e-001
      outer loop
         vertex -1.468626e-002 3.051840e-003 1.000000e-001
         vertex -1.496503e-002 -1.023636e-003 1.000000e-001
         vertex 0.000000e+000 1.734723e-018 1.200000e-001
      endloop
   endfacet
   facet normal -7.629822e-001 2.324229e-001 6.031897e-001
      outer loop
         vertex -1.331828e-002 6.900975e-003 1.000000e-001
         vertex -1.468626e-002 3.051840e-003 1.000000e-001
         vertex 0.000000e+000 1.734723e-018 1.200000e-001
      endloop
   endfacet
   facet normal -6.719818e-001 4.296542e-001 6.031896e-001
      outer loop
         vertex -1.096254e-002 1.023830e-002 1.000000e-001
         vertex -1.331828e-002 6.900975e-003 1.000000e-001
         vertex 0.000000e+000 1.734723e-018 1.200000e-001
      endloop
   endfacet
   facet normal -5.311436e-001 5.950199e-001 6.031897e-001
      outer loop
         vertex -7.793759e-003 1.281629e-002 1.000000e-001
         vertex -1.096254e-002 1.023830e-002 1.000000e-001
         vertex 0.000000e+000 1.734723e-018 1.200000e-001
      endloop
   endfacet
   facet normal -3.509128e-001 7.162558e-001 6.031896e-001
      outer loop
         vertex -4.046951e-003 1.444376e-002 1.000000e-001
         vertex -7.793759e-003 1.281629e-002 1.000000e-001
         vertex 0.000000e+000 1.734723e-018 1.200000e-001
      endloop
   endfacet
   facet normal -1.446566e-001 7.843703e-001 6.031896e-001
      outer loop
         vertex 0.000000e+000 1.500000e-002 1.000000e-001
         vertex -4.046951e-003 1.444376e-002 1.000000e-001
         vertex 0.000000e+000 1.734723e-018 1.200000e-001
      endloop
   endfacet
   facet normal 7.232828e-002 7.943116e-001 6.031896e-001
      outer loop
         vertex 4.046951e-003 1.444376e-002 1.000000e-001
         vertex 0.000000e+000 1.500000e-002 1.000000e-001
         vertex 0.000000e+000 1.734723e-018 1.200000e-001
      endloop
   endfacet
   facet normal 0.000000e+000 0.000000e+000 -1.000000e+000
      outer loop
         vertex 0.000000e+000 2.000000e-003 1.000000e-001
         vertex -1.000000e-003 1.732051e-003 1.000000e-001
         vertex -4.046951e-003 1.444376e-002 1.000000e-001
      endloop
   endfacet
   facet normal 0.000000e+000 0.000000e+000 -1.000000e+000
      outer loop
         vertex -1.732051e-003 1.000000e-003 1.000000e-001
         vertex -1.096254e-002 1.023830e-002 1.000000e-001
         vertex -1.000000e-003 1.732051e-003 1.000000e-001
      endloop
   endfacet
   facet normal 0.000000e+000 0.000000e+000 -1.000000e+000
      outer loop
         vertex -1.000000e-003 1.732051e-003 1.000000e-001
         vertex -1.096254e-002 1.023830e-002 1.000000e-001
         vertex -7.793759e-003 1.281629e-002 1.000000e-001
      endloop
   endfacet
   facet normal 0.000000e+000 0.000000e+000 -1.000000e+000
      outer loop
         vertex -1.000000e-003 1.732051e-003 1.000000e-001
         vertex -7.793759e-003 1.281629e-002 1.000000e-001
         vertex -4.046951e-003 1.444376e-002 1.000000e-001
      endloop
   endfacet
   facet normal 0.000000e+000 0.000000e+000 -1.000000e+000
      outer loop
         vertex -2.000000e-003 -2.143751e-018 1.000000e-001
         vertex -1.468626e-002 3.051840e-003 1.000000e-001
         vertex -1.732051e-003 1.000000e-003 1.000000e-001
      endloop
   endfacet
   facet normal 0.000000e+000 0.000000e+000 -1.000000e+000
      outer loop
         vertex -1.732051e-003 1.000000e-003 1.000000e-001
         vertex -1.468626e-002 3.051840e-003 1.000000e-001
         vertex -1.331828e-002 6.900975e-003 1.000000e-001
      endloop
   endfacet
   facet normal 0.000000e+000 0.000000e+000 -1.000000e+000
      outer loop
         vertex -1.732051e-003 1.000000e-003 1.000000e-001
         vertex -1.331828e-002 6.900975e-003 1.000000e-001
         vertex -1.096254e-002 1.023830e-002 1.000000e-001
      endloop
   endfacet
   facet normal 0.000000e+000 0.000000e+000 -1.000000e+000
      outer loop
         vertex 1.000000e-003 -1.732051e-003 1.000000e-001
         vertex 2.042500e-003 -1.486029e-002 1.000000e-001
         vertex 2.449294e-019 -2.000000e-003 1.000000e-001
      endloop
   endfacet
   facet normal 0.000000e+000 0.000000e+000 -1.000000e+000
      outer loop
         vertex 2.449294e-019 -2.000000e-003 1.000000e-001
         vertex 2.042500e-003 -1.486029e-002 1.000000e-001
         vertex -2.042500e-003 -1.486029e-002 1.000000e-001
      endloop
   endfacet
   facet normal 0.000000e+000 0.000000e+000 -1.000000e+000
      outer loop
         vertex 2.449294e-019 -2.000000e-003 1.000000e-001
         vertex -2.042500e-003 -1.486029e-002 1.000000e-001
         vertex -1.000000e-003 -1.732051e-003 1.000000e-001
      endloop
   endfacet
   facet normal 0.000000e+000 0.000000e+000 -1.000000e+000
      outer loop
         vertex 1.732051e-003 -1.000000e-003 1.000000e-001
         vertex 9.466319e-003 -1.163567e-002 1.000000e-001
         vertex 1.000000e-003 -1.732051e-003 1.000000e-001
      endloop
   endfacet
   facet normal 0.000000e+000 0.000000e+000 -1.000000e+000
      outer loop
         vertex 1.000000e-003 -1.732051e-003 1.000000e-001
         vertex 9.466319e-003 -1.163567e-002 1.000000e-001
         vertex 5.976016e-003 -1.375817e-002 1.000000e-001
      endloop
   endfacet
   facet normal 0.000000e+000 0.000000e+000 -1.000000e+000
      outer loop
         vertex 1.000000e-003 -1.732051e-003 1.000000e-001
         vertex 5.976016e-003 -1.375817e-002 1.000000e-001
         vertex 2.042500e-003 -1.486029e-002 1.000000e-001
      endloop
   endfacet
   facet normal 0.000000e+000 0.000000e+000 -1.000000e+000
      outer loop
         vertex 2.000000e-003 5.665539e-019 1.000000e-001
         vertex 1.413391e-002 -5.023194e-003 1.000000e-001
         vertex 1.732051e-003 -1.000000e-003 1.000000e-001
      endloop
   endfacet
   facet normal 0.000000e+000 0.000000e+000 -1.000000e+000
      outer loop
         vertex 1.732051e-003 -1.000000e-003 1.000000e-001
         vertex 1.413391e-002 -5.023194e-003 1.000000e-001
         vertex 1.225455e-002 -8.650205e-003 1.000000e-001
      endloop
   endfacet
   facet normal 0.000000e+000 0.000000e+000 -1.000000e+000
      outer loop
         vertex 1.732051e-003 -1.000000e-003 1.000000e-001
         vertex 1.225455e-002 -8.650205e-003 1.000000e-001
         vertex 9.466319e-003 -1.163567e-002 1.000000e-001
      endloop
   endfacet
   facet normal 0.000000e+000 0.000000e+000 -1.000000e+000
      outer loop
         vertex 1.732051e-003 1.000000e-003 1.000000e-001
         vertex 1.468626e-002 3.051840e-003 1.000000e-001
         vertex 2.000000e-003 5.665539e-019 1.000000e-001
      endloop
   endfacet
   facet normal 0.000000e+000 0.000000e+000 -1.000000e+000
      outer loop
         vertex 2.000000e-003 5.665539e-019 1.000000e-001
         vertex 1.468626e-002 3.051840e-003 1.000000e-001
         vertex 1.496503e-002 -1.023636e-003 1.000000e-001
      endloop
   endfacet
   facet normal 0.000000e+000 0.000000e+000 -1.000000e+000
      outer loop
         vertex 2.000000e-003 5.665539e-019 1.000000e-001
         vertex 1.496503e-002 -1.023636e-003 1.000000e-001
         vertex 1.413391e-002 -5.023194e-003 1.000000e-001
      endloop
   endfacet
   facet normal 0.000000e+000 0.000000e+000 -1.000000e+000
      outer loop
         vertex -1.732051e-003 -1.000000e-003 1.000000e-001
         vertex -1.413391e-002 -5.023194e-003 1.000000e-001
         vertex -2.000000e-003 -2.143751e-018 1.000000e-001
      endloop
   endfacet
   facet normal 0.000000e+000 0.000000e+000 -1.000000e+000
      outer loop
         vertex -2.000000e-003 -2.143751e-018 1.000000e-001
         vertex -1.413391e-002 -5.023194e-003 1.000000e-001
         vertex -1.496503e-002 -1.023636e-003 1.000000e-001
      endloop
   endfacet
   facet normal 0.000000e+000 0.000000e+000 -1.000000e+000
      outer loop
         vertex -2.000000e-003 -2.143751e-018 1.000000e-001
         vertex -1.496503e-002 -1.023636e-003 1.000000e-001
         vertex -1.468626e-002 3.051840e-003 1.000000e-001
      endloop
   endfacet
   facet normal 0.000000e+000 0.000000e+000 -1.000000e+000
      outer loop
         vertex 1.000000e-003 1.732051e-003 1.000000e-001
         vertex 1.096254e-002 1.023830e-002 1.000000e-001
         vertex 1.732051e-003 1.000000e-003 1.000000e-001
      endloop
   endfacet
   facet normal 0.000000e+000 0.000000e+000 -1.000000e+000
      outer loop
         vertex 1.732051e-003 1.000000e-003 1.000000e-001
         vertex 1.096254e-002 1.023830e-002 1.000000e-001
         vertex 1.331828e-002 6.900975e-003 1.000000e-001
      endloop
   endfacet
   facet normal 0.000000e+000 0.000000e+000 -1.000000e+000
      outer loop
         vertex 1.732051e-003 1.000000e-003 1.000000e-001
         vertex 1.331828e-002 6.900975e-003 1.000000e-001
         vertex 1.468626e-002 3.051840e-003 1.000000e-001
      endloop
   endfacet
   facet normal 0.000000e+000 0.000000e+000 -1.000000e+000
      outer loop
         vertex -4.046951e-003 1.444376e-002 1.000000e-001
         vertex -3.673940e-018 1.500000e-002 1.000000e-001
         vertex 0.000000e+000 2.000000e-003 1.000000e-001
      endloop
   endfacet
   facet normal 0.000000e+000 0.000000e+000 -1.000000e+000
      outer loop
         vertex 0.000000e+000 2.000000e-003 1.000000e-001
         vertex -3.673940e-018 1.500000e-002 1.000000e-001
         vertex 4.046951e-003 1.444376e-002 1.000000e-001
      endloop
   endfacet
   facet normal 0.000000e+000 0.000000e+000 -1.000000e+000
      outer loop
         vertex 0.000000e+000 2.000000e-003 1.000000e-001
         vertex 4.046951e-003 1.444376e-002 1.000000e-001
         vertex 1.000000e-003 1.732051e-003 1.000000e-001
      endloop
   endfacet
   facet normal 0.000000e+000 0.000000e+000 -1.000000e+000
      outer loop
         vertex 1.000000e-003 1.732051e-003 1.000000e-001
         vertex 4.046951e-003 1.444376e-002 1.000000e-001
         vertex 7.793759e-003 1.281629e-002 1.000000e-001
      endloop
   endfacet
   facet normal 0.000000e+000 0.000000e+000 -1.000000e+000
      outer loop
         vertex 1.000000e-003 1.732051e-003 1.000000e-001
         vertex 7.793759e-003 1.281629e-002 1.000000e-001
         vertex 1.096254e-002 1.023830e-002 1.000000e-001
      endloop
   endfacet
   facet normal 0.000000e+000 0.000000e+000 -1.000000e+000
      outer loop
         vertex -2.042500e-003 -1.486029e-002 1.000000e-001
         vertex -5.976016e-003 -1.375817e-002 1.000000e-001
         vertex -1.000000e-003 -1.732051e-003 1.000000e-001
      endloop
   endfacet
   facet normal 0.000000e+000 0.000000e+000 -1.000000e+000
      outer loop
         vertex -1.000000e-003 -1.732051e-003 1.000000e-001
         vertex -5.976016e-003 -1.375817e-002 1.000000e-001
         vertex -9.466319e-003 -1.163567e-002 1.000000e-001
      endloop
   endfacet
   facet normal 0.000000e+000 0.000000e+000 -1.000000e+000
      outer loop
         vertex -1.000000e-003 -1.732051e-003 1.000000e-001
         vertex -9.466319e-003 -1.163567e-002 1.000000e-001
         vertex -1.732051e-003 -1.000000e-003 1.000000e-001
      endloop
   endfacet
   facet normal 0.000000e+000 0.000000e+000 -1.000000e+000
      outer loop
         vertex -1.732051e-003 -1.000000e-003 1.000000e-001
         vertex -9.466319e-003 -1.163567e-002 1.000000e-001
         vertex -1.225455e-002 -8.650205e-003 1.000000e-001
      endloop
   endfacet
   facet normal 0.000000e+000 0.000000e+000 -1.000000e+000
      outer loop
         vertex -1.732051e-003 -1.000000e-003 1.000000e-001
         vertex -1.225455e-002 -8.650205e-003 1.000000e-001
         vertex -1.413391e-002 -5.023194e-003 1.000000e-001
      endloop
   endfacet
endsolid