solid arm1_base_link
   facet normal 0.000000e+000 -5.591823e-001 -8.290448e-001
      outer loop
         vertex -1.480327e-002 3.445451e-002 -7.685515e-002
         vertex -1.725244e-002 3.329569e-002 -7.607353e-002
         vertex -3.810000e-002 3.445451e-002 -7.685515e-002
      endloop
   endfacet
   facet normal 0.000000e+000 -5.591823e-001 -8.290448e-001
      outer loop
         vertex -3.810000e-002 3.445451e-002 -7.685515e-002
         vertex -1.725244e-002 3.329569e-002 -7.607353e-002
         vertex -1.948440e-002 3.204073e-002 -7.522707e-002
      endloop
   endfacet
   facet normal 0.000000e+000 -5.591823e-001 -8.290448e-001
      outer loop
         vertex -3.810000e-002 3.445451e-002 -7.685515e-002
         vertex -1.948440e-002 3.204073e-002 -7.522707e-002
         vertex -2.162551e-002 3.063637e-002 -7.427984e-002
      endloop
   endfacet
   facet normal 0.000000e+000 -5.591823e-001 -8.290448e-001
      outer loop
         vertex 2.162551e-002 3.063637e-002 -7.427984e-002
         vertex 1.948440e-002 3.204073e-002 -7.522707e-002
         vertex 3.810000e-002 3.445451e-002 -7.685515e-002
      endloop
   endfacet
   facet normal 0.000000e+000 -5.591823e-001 -8.290448e-001
      outer loop
         vertex 3.810000e-002 3.445451e-002 -7.685515e-002
         vertex 1.948440e-002 3.204073e-002 -7.522707e-002
         vertex 1.725244e-002 3.329569e-002 -7.607353e-002
      endloop
   endfacet
   facet normal 0.000000e+000 -5.591823e-001 -8.290448e-001
      outer loop
         vertex 3.810000e-002 3.445451e-002 -7.685515e-002
         vertex 1.725244e-002 3.329569e-002 -7.607353e-002
         vertex 1.480326e-002 3.445451e-002 -7.685515e-002
      endloop
   endfacet
   facet normal 0.000000e+000 -5.591823e-001 -8.290448e-001
      outer loop
         vertex -2.162551e-002 3.063637e-002 -7.427984e-002
         vertex -2.366580e-002 2.908917e-002 -7.323628e-002
         vertex -3.810000e-002 3.445451e-002 -7.685515e-002
      endloop
   endfacet
   facet normal 0.000000e+000 -5.591823e-001 -8.290448e-001
      outer loop
         vertex -3.810000e-002 3.445451e-002 -7.685515e-002
         vertex -2.366580e-002 2.908917e-002 -7.323628e-002
         vertex -2.559574e-002 2.740635e-002 -7.210123e-002
      endloop
   endfacet
   facet normal 0.000000e+000 -5.591823e-001 -8.290448e-001
      outer loop
         vertex -3.810000e-002 3.445451e-002 -7.685515e-002
         vertex -2.559574e-002 2.740635e-002 -7.210123e-002
         vertex -2.740635e-002 2.559574e-002 -7.088000e-002
      endloop
   endfacet
   facet normal 0.000000e+000 -5.591823e-001 -8.290448e-001
      outer loop
         vertex 2.740635e-002 2.559574e-002 -7.088000e-002
         vertex 2.559574e-002 2.740635e-002 -7.210123e-002
         vertex 3.810000e-002 3.445451e-002 -7.685515e-002
      endloop
   endfacet
   facet normal 0.000000e+000 -5.591823e-001 -8.290448e-001
      outer loop
         vertex 3.810000e-002 3.445451e-002 -7.685515e-002
         vertex 2.559574e-002 2.740635e-002 -7.210123e-002
         vertex 2.366580e-002 2.908917e-002 -7.323628e-002
      endloop
   endfacet
   facet normal 0.000000e+000 -5.591823e-001 -8.290448e-001
      outer loop
         vertex 3.810000e-002 3.445451e-002 -7.685515e-002
         vertex 2.366580e-002 2.908917e-002 -7.323628e-002
         vertex 2.162551e-002 3.063637e-002 -7.427984e-002
      endloop
   endfacet
   facet normal 0.000000e+000 -5.591823e-001 -8.290448e-001
      outer loop
         vertex -2.740635e-002 2.559574e-002 -7.088000e-002
         vertex -2.908917e-002 2.366580e-002 -6.957826e-002
         vertex -3.810000e-002 3.445451e-002 -7.685515e-002
      endloop
   endfacet
   facet normal 0.000000e+000 -5.591823e-001 -8.290448e-001
      outer loop
         vertex -3.810000e-002 3.445451e-002 -7.685515e-002
         vertex -2.908917e-002 2.366580e-002 -6.957826e-002
         vertex -3.063637e-002 2.162551e-002 -6.820211e-002
      endloop
   endfacet
   facet normal 0.000000e+000 -5.591823e-001 -8.290448e-001
      outer loop
         vertex -3.810000e-002 3.445451e-002 -7.685515e-002
         vertex -3.063637e-002 2.162551e-002 -6.820211e-002
         vertex -3.204073e-002 1.948440e-002 -6.675795e-002
      endloop
   endfacet
   facet normal 0.000000e+000 -5.591823e-001 -8.290448e-001
      outer loop
         vertex 3.204073e-002 1.948440e-002 -6.675795e-002
         vertex 3.063637e-002 2.162551e-002 -6.820211e-002
         vertex 3.810000e-002 3.445451e-002 -7.685515e-002
      endloop
   endfacet
   facet normal 0.000000e+000 -5.591823e-001 -8.290448e-001
      outer loop
         vertex 3.810000e-002 3.445451e-002 -7.685515e-002
         vertex 3.063637e-002 2.162551e-002 -6.820211e-002
         vertex 2.908917e-002 2.366580e-002 -6.957826e-002
      endloop
   endfacet
   facet normal 0.000000e+000 -5.591823e-001 -8.290448e-001
      outer loop
         vertex 3.810000e-002 3.445451e-002 -7.685515e-002
         vertex 2.908917e-002 2.366580e-002 -6.957826e-002
         vertex 2.740635e-002 2.559574e-002 -7.088000e-002
      endloop
   endfacet
   facet normal 0.000000e+000 -5.591823e-001 -8.290448e-001
      outer loop
         vertex -3.204073e-002 1.948440e-002 -6.675795e-002
         vertex -3.329569e-002 1.725244e-002 -6.525252e-002
         vertex -3.810000e-002 3.445451e-002 -7.685515e-002
      endloop
   endfacet
   facet normal 0.000000e+000 -5.591823e-001 -8.290448e-001
      outer loop
         vertex -3.810000e-002 3.445451e-002 -7.685515e-002
         vertex -3.329569e-002 1.725244e-002 -6.525252e-002
         vertex -3.439542e-002 1.494004e-002 -6.369283e-002
      endloop
   endfacet
   facet normal 0.000000e+000 -5.591823e-001 -8.290448e-001
      outer loop
         vertex -3.810000e-002 3.445451e-002 -7.685515e-002
         vertex -3.439542e-002 1.494004e-002 -6.369283e-002
         vertex -3.533478e-002 1.255799e-002 -6.208616e-002
      endloop
   endfacet
   facet normal 0.000000e+000 -5.591823e-001 -8.290448e-001
      outer loop
         vertex 3.533478e-002 1.255799e-002 -6.208616e-002
         vertex 3.439542e-002 1.494004e-002 -6.369283e-002
         vertex 3.810000e-002 3.445451e-002 -7.685515e-002
      endloop
   endfacet
   facet normal 0.000000e+000 -5.591823e-001 -8.290448e-001
      outer loop
         vertex 3.810000e-002 3.445451e-002 -7.685515e-002
         vertex 3.439542e-002 1.494004e-002 -6.369283e-002
         vertex 3.329569e-002 1.725244e-002 -6.525252e-002
      endloop
   endfacet
   facet normal 0.000000e+000 -5.591823e-001 -8.290448e-001
      outer loop
         vertex 3.810000e-002 3.445451e-002 -7.685515e-002
         vertex 3.329569e-002 1.725244e-002 -6.525252e-002
         vertex 3.204073e-002 1.948440e-002 -6.675795e-002
      endloop
   endfacet
   facet normal 0.000000e+000 -5.591823e-001 -8.290448e-001
      outer loop
         vertex -3.533478e-002 1.255799e-002 -6.208616e-002
         vertex -3.610940e-002 1.011738e-002 -6.044000e-002
         vertex -3.810000e-002 3.445451e-002 -7.685515e-002
      endloop
   endfacet
   facet normal 0.000000e+000 -5.591823e-001 -8.290448e-001
      outer loop
         vertex -3.810000e-002 3.445451e-002 -7.685515e-002
         vertex -3.610940e-002 1.011738e-002 -6.044000e-002
         vertex -3.671565e-002 7.629600e-003 -5.876201e-002
      endloop
   endfacet
   facet normal 0.000000e+000 -5.591823e-001 -8.290448e-001
      outer loop
         vertex -3.810000e-002 3.445451e-002 -7.685515e-002
         vertex -3.671565e-002 7.629600e-003 -5.876201e-002
         vertex -3.715072e-002 5.106249e-003 -5.706004e-002
      endloop
   endfacet
   facet normal 0.000000e+000 -5.591823e-001 -8.290448e-001
      outer loop
         vertex 3.715072e-002 5.106249e-003 -5.706004e-002
         vertex 3.671565e-002 7.629600e-003 -5.876201e-002
         vertex 3.810000e-002 3.445451e-002 -7.685515e-002
      endloop
   endfacet
   facet normal 0.000000e+000 -5.591823e-001 -8.290448e-001
      outer loop
         vertex 3.810000e-002 3.445451e-002 -7.685515e-002
         vertex 3.671565e-002 7.629600e-003 -5.876201e-002
         vertex 3.610940e-002 1.011738e-002 -6.044000e-002
      endloop
   endfacet
   facet normal 0.000000e+000 -5.591823e-001 -8.290448e-001
      outer loop
         vertex 3.810000e-002 3.445451e-002 -7.685515e-002
         vertex 3.610940e-002 1.011738e-002 -6.044000e-002
         vertex 3.533478e-002 1.255799e-002 -6.208616e-002
      endloop
   endfacet
   facet normal 0.000000e+000 -5.591823e-001 -8.290448e-001
      outer loop
         vertex 3.810000e-002 -2.485565e-002 -3.685104e-002
         vertex 3.750000e-002 1.985123e-017 -5.361592e-002
         vertex 3.810000e-002 3.445451e-002 -7.685515e-002
      endloop
   endfacet
   facet normal 0.000000e+000 -5.591823e-001 -8.290448e-001
      outer loop
         vertex 3.810000e-002 3.445451e-002 -7.685515e-002
         vertex 3.750000e-002 1.985123e-017 -5.361592e-002
         vertex 3.741258e-002 2.559090e-003 -5.534200e-002
      endloop
   endfacet
   facet normal 0.000000e+000 -5.591823e-001 -8.290448e-001
      outer loop
         vertex 3.810000e-002 3.445451e-002 -7.685515e-002
         vertex 3.741258e-002 2.559090e-003 -5.534200e-002
         vertex 3.715072e-002 5.106249e-003 -5.706004e-002
      endloop
   endfacet
   facet normal 0.000000e+000 -5.591823e-001 -8.290448e-001
      outer loop
         vertex -3.715072e-002 5.106249e-003 -5.706004e-002
         vertex -3.741258e-002 2.559090e-003 -5.534200e-002
         vertex -3.810000e-002 3.445451e-002 -7.685515e-002
      endloop
   endfacet
   facet normal 0.000000e+000 -5.591823e-001 -8.290448e-001
      outer loop
         vertex -3.810000e-002 3.445451e-002 -7.685515e-002
         vertex -3.741258e-002 2.559090e-003 -5.534200e-002
         vertex -3.750000e-002 1.985123e-017 -5.361592e-002
      endloop
   endfacet
   facet normal 0.000000e+000 -5.591823e-001 -8.290448e-001
      outer loop
         vertex -3.810000e-002 3.445451e-002 -7.685515e-002
         vertex -3.750000e-002 1.985123e-017 -5.361592e-002
         vertex -3.810000e-002 -2.485565e-002 -3.685104e-002
      endloop
   endfacet
   facet normal 0.000000e+000 -5.591823e-001 -8.290448e-001
      outer loop
         vertex -3.810000e-002 -2.485565e-002 -3.685104e-002
         vertex -3.750000e-002 1.985123e-017 -5.361592e-002
         vertex -3.750000e-002 -2.203262e-002 -3.875514e-002
      endloop
   endfacet
   facet normal 0.000000e+000 -5.591823e-001 -8.290448e-001
      outer loop
         vertex -3.810000e-002 -2.485565e-002 -3.685104e-002
         vertex -3.750000e-002 -2.203262e-002 -3.875514e-002
         vertex 3.810000e-002 -2.485565e-002 -3.685104e-002
      endloop
   endfacet
   facet normal 0.000000e+000 -5.591823e-001 -8.290448e-001
      outer loop
         vertex 3.810000e-002 -2.485565e-002 -3.685104e-002
         vertex -3.750000e-002 -2.203262e-002 -3.875514e-002
         vertex 3.750000e-002 -2.203262e-002 -3.875514e-002
      endloop
   endfacet
   facet normal 0.000000e+000 -5.591823e-001 -8.290448e-001
      outer loop
         vertex 3.810000e-002 -2.485565e-002 -3.685104e-002
         vertex 3.750000e-002 -2.203262e-002 -3.875514e-002
         vertex 3.750000e-002 1.985123e-017 -5.361592e-002
      endloop
   endfacet
   facet normal 0.000000e+000 -5.924367e-001 -8.056170e-001
      outer loop
         vertex -3.810000e-002 -2.485565e-002 -3.685104e-002
         vertex 3.810000e-002 -2.485565e-002 -3.685104e-002
         vertex 3.810000e-002 -2.915929e-002 -3.354904e-002
      endloop
   endfacet
   facet normal 0.000000e+000 -6.247634e-001 -7.808141e-001
      outer loop
         vertex -3.810000e-002 -2.485565e-002 -3.685104e-002
         vertex 3.810000e-002 -2.915929e-002 -3.354904e-002
         vertex -3.810000e-002 -2.915929e-002 -3.354904e-002
      endloop
   endfacet
   facet normal 0.000000e+000 -6.861552e-001 -7.274552e-001
      outer loop
         vertex -3.810000e-002 -2.915929e-002 -3.354904e-002
         vertex 3.810000e-002 -2.915929e-002 -3.354904e-002
         vertex 3.810000e-002 -3.302868e-002 -2.974742e-002
      endloop
   endfacet
   facet normal 0.000000e+000 -7.152200e-001 -6.988993e-001
      outer loop
         vertex -3.810000e-002 -2.915929e-002 -3.354904e-002
         vertex 3.810000e-002 -3.302868e-002 -2.974742e-002
         vertex -3.810000e-002 -3.302868e-002 -2.974742e-002
      endloop
   endfacet
   facet normal 0.000000e+000 -7.696551e-001 -6.384599e-001
      outer loop
         vertex -3.810000e-002 -3.302868e-002 -2.974742e-002
         vertex 3.810000e-002 -3.302868e-002 -2.974742e-002
         vertex 3.810000e-002 -3.640619e-002 -2.550278e-002
      endloop
   endfacet
   facet normal 0.000000e+000 -7.950253e-001 -6.065763e-001
      outer loop
         vertex -3.810000e-002 -3.302868e-002 -2.974742e-002
         vertex 3.810000e-002 -3.640619e-002 -2.550278e-002
         vertex -3.810000e-002 -3.640619e-002 -2.550278e-002
      endloop
   endfacet
   facet normal 0.000000e+000 -8.416931e-001 -5.399562e-001
      outer loop
         vertex -3.810000e-002 -3.640619e-002 -2.550278e-002
         vertex 3.810000e-002 -3.640619e-002 -2.550278e-002
         vertex 3.810000e-002 -3.924152e-002 -2.087835e-002
      endloop
   endfacet
   facet normal 0.000000e+000 -8.629907e-001 -5.052198e-001
      outer loop
         vertex -3.810000e-002 -3.640619e-002 -2.550278e-002
         vertex 3.810000e-002 -3.924152e-002 -2.087835e-002
         vertex -3.810000e-002 -3.924152e-002 -2.087835e-002
      endloop
   endfacet
   facet normal 0.000000e+000 -9.011962e-001 -4.334113e-001
      outer loop
         vertex -3.810000e-002 -3.924152e-002 -2.087835e-002
         vertex 3.810000e-002 -3.924152e-002 -2.087835e-002
         vertex 3.810000e-002 -4.149245e-002 -1.594299e-002
      endloop
   endfacet
   facet normal 0.000000e+000 -9.181041e-001 -3.963393e-001
      outer loop
         vertex -3.810000e-002 -3.924152e-002 -2.087835e-002
         vertex 3.810000e-002 -4.149245e-002 -1.594299e-002
         vertex -3.810000e-002 -4.149245e-002 -1.594299e-002
      endloop
   endfacet
   facet normal 0.000000e+000 -9.472783e-001 -3.204119e-001
      outer loop
         vertex -3.810000e-002 -4.149245e-002 -1.594299e-002
         vertex 3.810000e-002 -4.149245e-002 -1.594299e-002
         vertex 3.810000e-002 -4.312546e-002 -1.077019e-002
      endloop
   endfacet
   facet normal 0.000000e+000 -9.595447e-001 -2.815564e-001
      outer loop
         vertex -3.810000e-002 -4.149245e-002 -1.594299e-002
         vertex 3.810000e-002 -4.312546e-002 -1.077019e-002
         vertex -3.810000e-002 -4.312546e-002 -1.077019e-002
      endloop
   endfacet
   facet normal 0.000000e+000 -9.792532e-001 -2.026407e-001
      outer loop
         vertex -3.810000e-002 -4.312546e-002 -1.077019e-002
         vertex 3.810000e-002 -4.312546e-002 -1.077019e-002
         vertex 3.810000e-002 -4.411623e-002 -5.437006e-003
      endloop
   endfacet
   facet normal 0.000000e+000 -9.866953e-001 -1.625805e-001
      outer loop
         vertex -3.810000e-002 -4.312546e-002 -1.077019e-002
         vertex 3.810000e-002 -4.411623e-002 -5.437006e-003
         vertex -3.810000e-002 -4.411623e-002 -5.437006e-003
      endloop
   endfacet
   facet normal 0.000000e+000 -9.966445e-001 -8.185178e-002
      outer loop
         vertex -3.810000e-002 -4.411623e-002 -5.437006e-003
         vertex 3.810000e-002 -4.411623e-002 -5.437006e-003
         vertex 3.810000e-002 -4.444999e-002 -2.284751e-005
      endloop
   endfacet
   facet normal 0.000000e+000 -9.991516e-001 -4.118332e-002
      outer loop
         vertex -3.810000e-002 -4.411623e-002 -5.437006e-003
         vertex 3.810000e-002 -4.444999e-002 -2.284751e-005
         vertex -3.810000e-002 -4.444999e-002 -2.284751e-005
      endloop
   endfacet
   facet normal -0.000000e+000 -9.991934e-001 4.015614e-002
      outer loop
         vertex -3.810000e-002 -4.444999e-002 -2.284751e-005
         vertex 3.810000e-002 -4.444999e-002 -2.284751e-005
         vertex 3.810000e-002 -4.412179e-002 5.391649e-003
      endloop
   endfacet
   facet normal -0.000000e+000 -9.967281e-001 8.082715e-002
      outer loop
         vertex -3.810000e-002 -4.444999e-002 -2.284751e-005
         vertex 3.810000e-002 -4.412179e-002 5.391649e-003
         vertex -3.810000e-002 -4.412179e-002 5.391649e-003
      endloop
   endfacet
   facet normal -0.000000e+000 -9.868619e-001 1.615660e-001
      outer loop
         vertex -3.810000e-002 -4.412179e-002 5.391649e-003
         vertex 3.810000e-002 -4.412179e-002 5.391649e-003
         vertex 3.810000e-002 -4.313651e-002 1.072585e-002
      endloop
   endfacet
   facet normal -0.000000e+000 -9.794610e-001 2.016339e-001
      outer loop
         vertex -3.810000e-002 -4.412179e-002 5.391649e-003
         vertex 3.810000e-002 -4.313651e-002 1.072585e-002
         vertex -3.810000e-002 -4.313651e-002 1.072585e-002
      endloop
   endfacet
   facet normal -0.000000e+000 -9.598336e-001 2.805699e-001
      outer loop
         vertex -3.810000e-002 -4.313651e-002 1.072585e-002
         vertex 3.810000e-002 -4.313651e-002 1.072585e-002
         vertex 3.810000e-002 -4.150882e-002 1.590032e-002
      endloop
   endfacet
   facet normal -0.000000e+000 -9.476072e-001 3.194379e-001
      outer loop
         vertex -3.810000e-002 -4.313651e-002 1.072585e-002
         vertex 3.810000e-002 -4.150882e-002 1.590032e-002
         vertex -3.810000e-002 -4.150882e-002 1.590032e-002
      endloop
   endfacet
   facet normal -0.000000e+000 -9.185111e-001 3.953952e-001
      outer loop
         vertex -3.810000e-002 -4.150882e-002 1.590032e-002
         vertex 3.810000e-002 -4.150882e-002 1.590032e-002
         vertex 3.810000e-002 -3.926297e-002 2.083800e-002
      endloop
   endfacet
   facet normal -0.000000e+000 -9.016413e-001 4.324846e-001
      outer loop
         vertex -3.810000e-002 -4.150882e-002 1.590032e-002
         vertex 3.810000e-002 -3.926297e-002 2.083800e-002
         vertex -3.810000e-002 -3.926297e-002 2.083800e-002
      endloop
   endfacet
   facet normal -0.000000e+000 -8.635097e-001 5.043323e-001
      outer loop
         vertex -3.810000e-002 -3.926297e-002 2.083800e-002
         vertex 3.810000e-002 -3.926297e-002 2.083800e-002
         vertex 3.810000e-002 -3.643239e-002 2.546534e-002
      endloop
   endfacet
   facet normal -0.000000e+000 -8.422478e-001 5.390906e-001
      outer loop
         vertex -3.810000e-002 -3.926297e-002 2.083800e-002
         vertex 3.810000e-002 -3.643239e-002 2.546534e-002
         vertex -3.810000e-002 -3.643239e-002 2.546534e-002
      endloop
   endfacet
   facet normal -0.000000e+000 -7.956485e-001 6.057586e-001
      outer loop
         vertex -3.810000e-002 -3.643239e-002 2.546534e-002
         vertex 3.810000e-002 -3.643239e-002 2.546534e-002
         vertex 3.810000e-002 -3.305924e-002 2.971345e-002
      endloop
   endfacet
   facet normal -0.000000e+000 -7.703111e-001 6.376683e-001
      outer loop
         vertex -3.810000e-002 -3.643239e-002 2.546534e-002
         vertex 3.810000e-002 -3.305924e-002 2.971345e-002
         vertex -3.810000e-002 -3.305924e-002 2.971345e-002
      endloop
   endfacet
   facet normal -0.000000e+000 -7.159382e-001 6.981637e-001
      outer loop
         vertex -3.810000e-002 -3.305924e-002 2.971345e-002
         vertex 3.810000e-002 -3.305924e-002 2.971345e-002
         vertex 3.810000e-002 -2.919377e-002 3.351904e-002
      endloop
   endfacet
   facet normal -0.000000e+000 -6.869026e-001 7.267494e-001
      outer loop
         vertex -3.810000e-002 -3.305924e-002 2.971345e-002
         vertex 3.810000e-002 -2.919377e-002 3.351904e-002
         vertex -3.810000e-002 -2.919377e-002 3.351904e-002
      endloop
   endfacet
   facet normal -0.000000e+000 -6.255658e-001 7.801714e-001
      outer loop
         vertex -3.810000e-002 -2.919377e-002 3.351904e-002
         vertex 3.810000e-002 -2.919377e-002 3.351904e-002
         vertex 3.810000e-002 -2.489352e-002 3.682547e-002
      endloop
   endfacet
   facet normal -0.000000e+000 -5.932646e-001 8.050076e-001
      outer loop
         vertex -3.810000e-002 -2.919377e-002 3.351904e-002
         vertex 3.810000e-002 -2.489352e-002 3.682547e-002
         vertex -3.810000e-002 -2.489352e-002 3.682547e-002
      endloop
   endfacet
   facet normal -0.000000e+000 -5.258772e-001 8.505605e-001
      outer loop
         vertex -3.810000e-002 -2.489352e-002 3.682547e-002
         vertex 3.810000e-002 -2.489352e-002 3.682547e-002
         vertex 3.810000e-002 -2.022255e-002 3.958346e-002
      endloop
   endfacet
   facet normal -0.000000e+000 -4.907913e-001 8.712772e-001
      outer loop
         vertex -3.810000e-002 -2.489352e-002 3.682547e-002
         vertex 3.810000e-002 -2.022255e-002 3.958346e-002
         vertex -3.810000e-002 -2.022255e-002 3.958346e-002
      endloop
   endfacet
   facet normal -0.000000e+000 -4.183571e-001 9.082826e-001
      outer loop
         vertex -3.810000e-002 -2.022255e-002 3.958346e-002
         vertex 3.810000e-002 -2.022255e-002 3.958346e-002
         vertex 3.810000e-002 -1.525042e-002 4.175197e-002
      endloop
   endfacet
   facet normal -0.000000e+000 -3.810090e-001 9.245713e-001
      outer loop
         vertex -3.810000e-002 -2.022255e-002 3.958346e-002
         vertex 3.810000e-002 -1.525042e-002 4.175197e-002
         vertex -3.810000e-002 -1.525042e-002 4.175197e-002
      endloop
   endfacet
   facet normal -0.000000e+000 -3.046066e-001 9.524782e-001
      outer loop
         vertex -3.810000e-002 -1.525042e-002 4.175197e-002
         vertex 3.810000e-002 -1.525042e-002 4.175197e-002
         vertex 3.810000e-002 -1.005118e-002 4.329869e-002
      endloop
   endfacet
   facet normal -0.000000e+000 -2.655525e-001 9.640964e-001
      outer loop
         vertex -3.810000e-002 -1.525042e-002 4.175197e-002
         vertex 3.810000e-002 -1.005118e-002 4.329869e-002
         vertex -3.810000e-002 -1.005118e-002 4.329869e-002
      endloop
   endfacet
   facet normal -0.000000e+000 -1.863198e-001 9.824892e-001
      outer loop
         vertex -3.810000e-002 -1.005118e-002 4.329869e-002
         vertex 3.810000e-002 -1.005118e-002 4.329869e-002
         vertex 3.810000e-002 -4.702243e-003 4.420058e-002
      endloop
   endfacet
   facet normal -0.000000e+000 -1.461412e-001 9.892637e-001
      outer loop
         vertex -3.810000e-002 -1.005118e-002 4.329869e-002
         vertex 3.810000e-002 -4.702243e-003 4.420058e-002
         vertex -3.810000e-002 -4.702243e-003 4.420058e-002
      endloop
   endfacet
   facet normal -0.000000e+000 -6.525818e-002 9.978684e-001
      outer loop
         vertex -3.810000e-002 -4.702243e-003 4.420058e-002
         vertex 3.810000e-002 -4.702243e-003 4.420058e-002
         vertex 3.810000e-002 7.167189e-004 4.444422e-002
      endloop
   endfacet
   facet normal -0.000000e+000 -2.455363e-002 9.996985e-001
      outer loop
         vertex -3.810000e-002 -4.702243e-003 4.420058e-002
         vertex 3.810000e-002 7.167189e-004 4.444422e-002
         vertex -3.810000e-002 7.167189e-004 4.444422e-002
      endloop
   endfacet
   facet normal 0.000000e+000 5.677527e-002 9.983870e-001
      outer loop
         vertex -3.810000e-002 7.167189e-004 4.444422e-002
         vertex 3.810000e-002 7.167189e-004 4.444422e-002
         vertex 3.810000e-002 6.125006e-003 4.402598e-002
      endloop
   endfacet
   facet normal 0.000000e+000 9.739964e-002 9.952453e-001
      outer loop
         vertex -3.810000e-002 7.167189e-004 4.444422e-002
         vertex 3.810000e-002 6.125006e-003 4.402598e-002
         vertex -3.810000e-002 6.125006e-003 4.402598e-002
      endloop
   endfacet
   facet normal 0.000000e+000 1.779632e-001 9.840372e-001
      outer loop
         vertex -3.810000e-002 6.125006e-003 4.402598e-002
         vertex 3.810000e-002 6.125006e-003 4.402598e-002
         vertex 3.810000e-002 1.144208e-002 4.295208e-002
      endloop
   endfacet
   facet normal 0.000000e+000 2.179024e-001 9.759706e-001
      outer loop
         vertex -3.810000e-002 6.125006e-003 4.402598e-002
         vertex 3.810000e-002 1.144208e-002 4.295208e-002
         vertex -3.810000e-002 1.144208e-002 4.295208e-002
      endloop
   endfacet
   facet normal 0.000000e+000 2.965008e-001 9.550326e-001
      outer loop
         vertex -3.810000e-002 1.144208e-002 4.295208e-002
         vertex 3.810000e-002 1.144208e-002 4.295208e-002
         vertex 3.810000e-002 1.658875e-002 4.123852e-002
      endloop
   endfacet
   facet normal 0.000000e+000 3.351600e-001 9.421612e-001
      outer loop
         vertex -3.810000e-002 1.144208e-002 4.295208e-002
         vertex 3.810000e-002 1.658875e-002 4.123852e-002
         vertex -3.810000e-002 1.658875e-002 4.123852e-002
      endloop
   endfacet
   facet normal 0.000000e+000 3.732002e-001 9.277508e-001
      outer loop
         vertex -3.810000e-002 5.433363e-002 2.605514e-002
         vertex -3.810000e-002 1.658875e-002 4.123852e-002
         vertex 3.810000e-002 5.433363e-002 2.605514e-002
      endloop
   endfacet
   facet normal 0.000000e+000 3.732002e-001 9.277508e-001
      outer loop
         vertex 3.810000e-002 5.433363e-002 2.605514e-002
         vertex -3.810000e-002 1.658875e-002 4.123852e-002
         vertex 3.810000e-002 1.658875e-002 4.123852e-002
      endloop
   endfacet
   facet normal 0.000000e+000 7.071068e-001 7.071068e-001
      outer loop
         vertex -3.810000e-002 7.366000e-002 6.728766e-003
         vertex -3.810000e-002 5.433363e-002 2.605514e-002
         vertex 3.810000e-002 7.366000e-002 6.728766e-003
      endloop
   endfacet
   facet normal 0.000000e+000 7.071068e-001 7.071068e-001
      outer loop
         vertex 3.810000e-002 7.366000e-002 6.728766e-003
         vertex -3.810000e-002 5.433363e-002 2.605514e-002
         vertex 3.810000e-002 5.433363e-002 2.605514e-002
      endloop
   endfacet
   facet normal 0.000000e+000 1.000000e+000 2.731848e-016
      outer loop
         vertex -3.810000e-002 7.366000e-002 -3.069639e-010
         vertex -3.810000e-002 7.366000e-002 6.728766e-003
         vertex 3.810000e-002 7.366000e-002 -3.069639e-010
      endloop
   endfacet
   facet normal 0.000000e+000 1.000000e+000 2.731848e-016
      outer loop
         vertex 3.810000e-002 7.366000e-002 -3.069639e-010
         vertex -3.810000e-002 7.366000e-002 6.728766e-003
         vertex 3.810000e-002 7.366000e-002 6.728766e-003
      endloop
   endfacet
   facet normal 0.000000e+000 -9.327112e-016 -1.000000e+000
      outer loop
         vertex -3.810000e-002 6.790586e-002 -3.069639e-010
         vertex -3.810000e-002 7.366000e-002 -3.069639e-010
         vertex 3.810000e-002 6.790586e-002 -3.069639e-010
      endloop
   endfacet
   facet normal 0.000000e+000 -9.327112e-016 -1.000000e+000
      outer loop
         vertex 3.810000e-002 6.790586e-002 -3.069639e-010
         vertex -3.810000e-002 7.366000e-002 -3.069639e-010
         vertex 3.810000e-002 7.366000e-002 -3.069639e-010
      endloop
   endfacet
   facet normal 0.000000e+000 7.071068e-001 -7.071068e-001
      outer loop
         vertex -3.810000e-002 6.383707e-002 -4.068790e-003
         vertex -3.810000e-002 6.790586e-002 -3.069639e-010
         vertex 3.810000e-002 6.383707e-002 -4.068790e-003
      endloop
   endfacet
   facet normal 0.000000e+000 7.071068e-001 -7.071068e-001
      outer loop
         vertex 3.810000e-002 6.383707e-002 -4.068790e-003
         vertex -3.810000e-002 6.790586e-002 -3.069639e-010
         vertex 3.810000e-002 6.790586e-002 -3.069639e-010
      endloop
   endfacet
   facet normal 0.000000e+000 2.731848e-016 -1.000000e+000
      outer loop
         vertex -3.810000e-002 5.808293e-002 -4.068790e-003
         vertex -3.810000e-002 6.383707e-002 -4.068790e-003
         vertex 3.810000e-002 5.808293e-002 -4.068790e-003
      endloop
   endfacet
   facet normal 0.000000e+000 2.731848e-016 -1.000000e+000
      outer loop
         vertex 3.810000e-002 5.808293e-002 -4.068790e-003
         vertex -3.810000e-002 6.383707e-002 -4.068790e-003
         vertex 3.810000e-002 6.383707e-002 -4.068790e-003
      endloop
   endfacet
   facet normal 0.000000e+000 -7.071068e-001 -7.071068e-001
      outer loop
         vertex -3.810000e-002 5.401414e-002 -3.069639e-010
         vertex -3.810000e-002 5.808293e-002 -4.068790e-003
         vertex 3.810000e-002 5.401414e-002 -3.069639e-010
      endloop
   endfacet
   facet normal 0.000000e+000 -7.071068e-001 -7.071068e-001
      outer loop
         vertex 3.810000e-002 5.401414e-002 -3.069639e-010
         vertex -3.810000e-002 5.808293e-002 -4.068790e-003
         vertex 3.810000e-002 5.808293e-002 -4.068790e-003
      endloop
   endfacet
   facet normal 0.000000e+000 2.731848e-016 -1.000000e+000
      outer loop
         vertex -3.810000e-002 4.826000e-002 -3.069639e-010
         vertex -3.810000e-002 5.401414e-002 -3.069639e-010
         vertex 3.810000e-002 4.826000e-002 -3.069639e-010
      endloop
   endfacet
   facet normal 0.000000e+000 2.731848e-016 -1.000000e+000
      outer loop
         vertex 3.810000e-002 4.826000e-002 -3.069639e-010
         vertex -3.810000e-002 5.401414e-002 -3.069639e-010
         vertex 3.810000e-002 5.401414e-002 -3.069639e-010
      endloop
   endfacet
   facet normal 0.000000e+000 1.000000e+000 1.365924e-016
      outer loop
         vertex -3.810000e-002 4.826000e-002 -5.080000e-002
         vertex -3.810000e-002 4.826000e-002 -3.069639e-010
         vertex 3.810000e-002 4.826000e-002 -5.080000e-002
      endloop
   endfacet
   facet normal 0.000000e+000 1.000000e+000 1.365924e-016
      outer loop
         vertex 3.810000e-002 4.826000e-002 -5.080000e-002
         vertex -3.810000e-002 4.826000e-002 -3.069639e-010
         vertex 3.810000e-002 4.826000e-002 -3.069639e-010
      endloop
   endfacet
   facet normal 0.000000e+000 -2.731848e-016 1.000000e+000
      outer loop
         vertex -3.810000e-002 5.401414e-002 -5.080000e-002
         vertex -3.810000e-002 4.826000e-002 -5.080000e-002
         vertex 3.810000e-002 5.401414e-002 -5.080000e-002
      endloop
   endfacet
   facet normal 0.000000e+000 -2.731848e-016 1.000000e+000
      outer loop
         vertex 3.810000e-002 5.401414e-002 -5.080000e-002
         vertex -3.810000e-002 4.826000e-002 -5.080000e-002
         vertex 3.810000e-002 4.826000e-002 -5.080000e-002
      endloop
   endfacet
   facet normal -0.000000e+000 -7.071068e-001 7.071068e-001
      outer loop
         vertex -3.810000e-002 5.808293e-002 -4.673121e-002
         vertex -3.810000e-002 5.401414e-002 -5.080000e-002
         vertex 3.810000e-002 5.808293e-002 -4.673121e-002
      endloop
   endfacet
   facet normal -0.000000e+000 -7.071068e-001 7.071068e-001
      outer loop
         vertex 3.810000e-002 5.808293e-002 -4.673121e-002
         vertex -3.810000e-002 5.401414e-002 -5.080000e-002
         vertex 3.810000e-002 5.401414e-002 -5.080000e-002
      endloop
   endfacet
   facet normal 0.000000e+000 -2.731848e-016 1.000000e+000
      outer loop
         vertex -3.810000e-002 6.383707e-002 -4.673121e-002
         vertex -3.810000e-002 5.808293e-002 -4.673121e-002
         vertex 3.810000e-002 6.383707e-002 -4.673121e-002
      endloop
   endfacet
   facet normal 0.000000e+000 -2.731848e-016 1.000000e+000
      outer loop
         vertex 3.810000e-002 6.383707e-002 -4.673121e-002
         vertex -3.810000e-002 5.808293e-002 -4.673121e-002
         vertex 3.810000e-002 5.808293e-002 -4.673121e-002
      endloop
   endfacet
   facet normal 0.000000e+000 7.071068e-001 7.071068e-001
      outer loop
         vertex -3.810000e-002 6.790586e-002 -5.080000e-002
         vertex -3.810000e-002 6.383707e-002 -4.673121e-002
         vertex 3.810000e-002 6.790586e-002 -5.080000e-002
      endloop
   endfacet
   facet normal 0.000000e+000 7.071068e-001 7.071068e-001
      outer loop
         vertex 3.810000e-002 6.790586e-002 -5.080000e-002
         vertex -3.810000e-002 6.383707e-002 -4.673121e-002
         vertex 3.810000e-002 6.383707e-002 -4.673121e-002
      endloop
   endfacet
   facet normal 0.000000e+000 -2.731848e-016 1.000000e+000
      outer loop
         vertex -3.810000e-002 7.366000e-002 -5.080000e-002
         vertex -3.810000e-002 6.790586e-002 -5.080000e-002
         vertex 3.810000e-002 7.366000e-002 -5.080000e-002
      endloop
   endfacet
   facet normal 0.000000e+000 -2.731848e-016 1.000000e+000
      outer loop
         vertex 3.810000e-002 7.366000e-002 -5.080000e-002
         vertex -3.810000e-002 6.790586e-002 -5.080000e-002
         vertex 3.810000e-002 6.790586e-002 -5.080000e-002
      endloop
   endfacet
   facet normal 0.000000e+000 1.000000e+000 -1.789271e-015
      outer loop
         vertex -3.810000e-002 7.366000e-002 -5.752877e-002
         vertex -3.810000e-002 7.366000e-002 -5.080000e-002
         vertex 3.810000e-002 7.366000e-002 -5.752877e-002
      endloop
   endfacet
   facet normal 0.000000e+000 1.000000e+000 -1.789271e-015
      outer loop
         vertex 3.810000e-002 7.366000e-002 -5.752877e-002
         vertex -3.810000e-002 7.366000e-002 -5.080000e-002
         vertex 3.810000e-002 7.366000e-002 -5.080000e-002
      endloop
   endfacet
   facet normal 0.000000e+000 7.071068e-001 -7.071068e-001
      outer loop
         vertex -3.810000e-002 5.433363e-002 -7.685515e-002
         vertex -3.810000e-002 7.366000e-002 -5.752877e-002
         vertex 3.810000e-002 5.433363e-002 -7.685515e-002
      endloop
   endfacet
   facet normal 0.000000e+000 7.071068e-001 -7.071068e-001
      outer loop
         vertex 3.810000e-002 5.433363e-002 -7.685515e-002
         vertex -3.810000e-002 7.366000e-002 -5.752877e-002
         vertex 3.810000e-002 7.366000e-002 -5.752877e-002
      endloop
   endfacet
   facet normal 0.000000e+000 2.731848e-016 -1.000000e+000
      outer loop
         vertex 3.810000e-002 3.445451e-002 -7.685515e-002
         vertex 1.480326e-002 3.445451e-002 -7.685515e-002
         vertex 3.810000e-002 5.433363e-002 -7.685515e-002
      endloop
   endfacet
   facet normal 0.000000e+000 2.731848e-016 -1.000000e+000
      outer loop
         vertex 3.810000e-002 5.433363e-002 -7.685515e-002
         vertex 1.480326e-002 3.445451e-002 -7.685515e-002
         vertex 1.255798e-002 3.533478e-002 -7.685515e-002
      endloop
   endfacet
   facet normal 0.000000e+000 2.731848e-016 -1.000000e+000
      outer loop
         vertex -2.559089e-003 3.741258e-002 -7.685515e-002
         vertex -3.810000e-002 5.433363e-002 -7.685515e-002
         vertex 2.559091e-003 3.741258e-002 -7.685515e-002
      endloop
   endfacet
   facet normal 0.000000e+000 2.731848e-016 -1.000000e+000
      outer loop
         vertex 2.559091e-003 3.741258e-002 -7.685515e-002
         vertex -3.810000e-002 5.433363e-002 -7.685515e-002
         vertex 3.810000e-002 5.433363e-002 -7.685515e-002
      endloop
   endfacet
   facet normal 0.000000e+000 2.731848e-016 -1.000000e+000
      outer loop
         vertex 2.559091e-003 3.741258e-002 -7.685515e-002
         vertex 3.810000e-002 5.433363e-002 -7.685515e-002
         vertex 7.629601e-003 3.671565e-002 -7.685515e-002
      endloop
   endfacet
   facet normal 0.000000e+000 2.731848e-016 -1.000000e+000
      outer loop
         vertex 7.629601e-003 3.671565e-002 -7.685515e-002
         vertex 3.810000e-002 5.433363e-002 -7.685515e-002
         vertex 1.255798e-002 3.533478e-002 -7.685515e-002
      endloop
   endfacet
   facet normal 0.000000e+000 2.731848e-016 -1.000000e+000
      outer loop
         vertex -1.480327e-002 3.445451e-002 -7.685515e-002
         vertex -3.810000e-002 3.445451e-002 -7.685515e-002
         vertex -1.255798e-002 3.533478e-002 -7.685515e-002
      endloop
   endfacet
   facet normal 0.000000e+000 2.731848e-016 -1.000000e+000
      outer loop
         vertex -1.255798e-002 3.533478e-002 -7.685515e-002
         vertex -3.810000e-002 3.445451e-002 -7.685515e-002
         vertex -3.810000e-002 5.433363e-002 -7.685515e-002
      endloop
   endfacet
   facet normal 0.000000e+000 2.731848e-016 -1.000000e+000
      outer loop
         vertex -1.255798e-002 3.533478e-002 -7.685515e-002
         vertex -3.810000e-002 5.433363e-002 -7.685515e-002
         vertex -7.629600e-003 3.671565e-002 -7.685515e-002
      endloop
   endfacet
   facet normal 0.000000e+000 2.731848e-016 -1.000000e+000
      outer loop
         vertex -7.629600e-003 3.671565e-002 -7.685515e-002
         vertex -3.810000e-002 5.433363e-002 -7.685515e-002
         vertex -2.559089e-003 3.741258e-002 -7.685515e-002
      endloop
   endfacet
   facet normal -1.000000e+000 0.000000e+000 0.000000e+000
      outer loop
         vertex -3.810000e-002 5.433363e-002 2.605514e-002
         vertex -3.810000e-002 7.366000e-002 6.728766e-003
         vertex -3.810000e-002 7.366000e-002 -3.069639e-010
      endloop
   endfacet
   facet normal -1.000000e+000 0.000000e+000 0.000000e+000
      outer loop
         vertex -3.810000e-002 4.826000e-002 -5.080000e-002
         vertex -3.810000e-002 3.445451e-002 -7.685515e-002
         vertex -3.810000e-002 -2.485565e-002 -3.685104e-002
      endloop
   endfacet
   facet normal -1.000000e+000 0.000000e+000 0.000000e+000
      outer loop
         vertex -3.810000e-002 5.433363e-002 2.605514e-002
         vertex -3.810000e-002 5.401414e-002 -3.069639e-010
         vertex -3.810000e-002 1.658875e-002 4.123852e-002
      endloop
   endfacet
   facet normal -1.000000e+000 0.000000e+000 0.000000e+000
      outer loop
         vertex -3.810000e-002 1.658875e-002 4.123852e-002
         vertex -3.810000e-002 5.401414e-002 -3.069639e-010
         vertex -3.810000e-002 4.826000e-002 -3.069639e-010
      endloop
   endfacet
   facet normal -1.000000e+000 0.000000e+000 0.000000e+000
      outer loop
         vertex -3.810000e-002 5.808293e-002 -4.068790e-003
         vertex -3.810000e-002 5.401414e-002 -3.069639e-010
         vertex -3.810000e-002 6.383707e-002 -4.068790e-003
      endloop
   endfacet
   facet normal -1.000000e+000 0.000000e+000 0.000000e+000
      outer loop
         vertex -3.810000e-002 6.383707e-002 -4.068790e-003
         vertex -3.810000e-002 5.401414e-002 -3.069639e-010
         vertex -3.810000e-002 5.433363e-002 2.605514e-002
      endloop
   endfacet
   facet normal -1.000000e+000 0.000000e+000 0.000000e+000
      outer loop
         vertex -3.810000e-002 6.383707e-002 -4.068790e-003
         vertex -3.810000e-002 5.433363e-002 2.605514e-002
         vertex -3.810000e-002 6.790586e-002 -3.069639e-010
      endloop
   endfacet
   facet normal -1.000000e+000 0.000000e+000 0.000000e+000
      outer loop
         vertex -3.810000e-002 6.790586e-002 -3.069639e-010
         vertex -3.810000e-002 5.433363e-002 2.605514e-002
         vertex -3.810000e-002 7.366000e-002 -3.069639e-010
      endloop
   endfacet
   facet normal -1.000000e+000 0.000000e+000 0.000000e+000
      outer loop
         vertex -3.810000e-002 4.826000e-002 -5.080000e-002
         vertex -3.810000e-002 -2.485565e-002 -3.685104e-002
         vertex -3.810000e-002 4.826000e-002 -3.069639e-010
      endloop
   endfacet
   facet normal -1.000000e+000 0.000000e+000 0.000000e+000
      outer loop
         vertex -3.810000e-002 -2.022255e-002 3.958346e-002
         vertex -3.810000e-002 -2.485565e-002 -3.685104e-002
         vertex -3.810000e-002 -2.915929e-002 -3.354904e-002
      endloop
   endfacet
   facet normal -1.000000e+000 0.000000e+000 0.000000e+000
      outer loop
         vertex -3.810000e-002 3.445451e-002 -7.685515e-002
         vertex -3.810000e-002 4.826000e-002 -5.080000e-002
         vertex -3.810000e-002 5.433363e-002 -7.685515e-002
      endloop
   endfacet
   facet normal -1.000000e+000 0.000000e+000 0.000000e+000
      outer loop
         vertex -3.810000e-002 5.433363e-002 -7.685515e-002
         vertex -3.810000e-002 4.826000e-002 -5.080000e-002
         vertex -3.810000e-002 5.401414e-002 -5.080000e-002
      endloop
   endfacet
   facet normal -1.000000e+000 0.000000e+000 0.000000e+000
      outer loop
         vertex -3.810000e-002 5.433363e-002 -7.685515e-002
         vertex -3.810000e-002 5.401414e-002 -5.080000e-002
         vertex -3.810000e-002 5.808293e-002 -4.673121e-002
      endloop
   endfacet
   facet normal -1.000000e+000 0.000000e+000 0.000000e+000
      outer loop
         vertex -3.810000e-002 -4.702243e-003 4.420058e-002
         vertex -3.810000e-002 7.167189e-004 4.444422e-002
         vertex -3.810000e-002 -2.485565e-002 -3.685104e-002
      endloop
   endfacet
   facet normal -1.000000e+000 0.000000e+000 0.000000e+000
      outer loop
         vertex -3.810000e-002 -2.485565e-002 -3.685104e-002
         vertex -3.810000e-002 7.167189e-004 4.444422e-002
         vertex -3.810000e-002 6.125006e-003 4.402598e-002
      endloop
   endfacet
   facet normal -1.000000e+000 0.000000e+000 0.000000e+000
      outer loop
         vertex -3.810000e-002 -2.485565e-002 -3.685104e-002
         vertex -3.810000e-002 6.125006e-003 4.402598e-002
         vertex -3.810000e-002 4.826000e-002 -3.069639e-010
      endloop
   endfacet
   facet normal -1.000000e+000 0.000000e+000 0.000000e+000
      outer loop
         vertex -3.810000e-002 4.826000e-002 -3.069639e-010
         vertex -3.810000e-002 6.125006e-003 4.402598e-002
         vertex -3.810000e-002 1.144208e-002 4.295208e-002
      endloop
   endfacet
   facet normal -1.000000e+000 0.000000e+000 0.000000e+000
      outer loop
         vertex -3.810000e-002 4.826000e-002 -3.069639e-010
         vertex -3.810000e-002 1.144208e-002 4.295208e-002
         vertex -3.810000e-002 1.658875e-002 4.123852e-002
      endloop
   endfacet
   facet normal -1.000000e+000 0.000000e+000 0.000000e+000
      outer loop
         vertex -3.810000e-002 7.366000e-002 -5.080000e-002
         vertex -3.810000e-002 7.366000e-002 -5.752877e-002
         vertex -3.810000e-002 6.790586e-002 -5.080000e-002
      endloop
   endfacet
   facet normal -1.000000e+000 0.000000e+000 0.000000e+000
      outer loop
         vertex -3.810000e-002 6.790586e-002 -5.080000e-002
         vertex -3.810000e-002 7.366000e-002 -5.752877e-002
         vertex -3.810000e-002 5.433363e-002 -7.685515e-002
      endloop
   endfacet
   facet normal -1.000000e+000 0.000000e+000 0.000000e+000
      outer loop
         vertex -3.810000e-002 6.790586e-002 -5.080000e-002
         vertex -3.810000e-002 5.433363e-002 -7.685515e-002
         vertex -3.810000e-002 6.383707e-002 -4.673121e-002
      endloop
   endfacet
   facet normal -1.000000e+000 0.000000e+000 0.000000e+000
      outer loop
         vertex -3.810000e-002 6.383707e-002 -4.673121e-002
         vertex -3.810000e-002 5.433363e-002 -7.685515e-002
         vertex -3.810000e-002 5.808293e-002 -4.673121e-002
      endloop
   endfacet
   facet normal -1.000000e+000 0.000000e+000 0.000000e+000
      outer loop
         vertex -3.810000e-002 -2.022255e-002 3.958346e-002
         vertex -3.810000e-002 -1.525042e-002 4.175197e-002
         vertex -3.810000e-002 -2.485565e-002 -3.685104e-002
      endloop
   endfacet
   facet normal -1.000000e+000 0.000000e+000 0.000000e+000
      outer loop
         vertex -3.810000e-002 -2.485565e-002 -3.685104e-002
         vertex -3.810000e-002 -1.525042e-002 4.175197e-002
         vertex -3.810000e-002 -1.005118e-002 4.329869e-002
      endloop
   endfacet
   facet normal -1.000000e+000 0.000000e+000 0.000000e+000
      outer loop
         vertex -3.810000e-002 -2.485565e-002 -3.685104e-002
         vertex -3.810000e-002 -1.005118e-002 4.329869e-002
         vertex -3.810000e-002 -4.702243e-003 4.420058e-002
      endloop
   endfacet
   facet normal -1.000000e+000 0.000000e+000 0.000000e+000
      outer loop
         vertex -3.810000e-002 -2.915929e-002 -3.354904e-002
         vertex -3.810000e-002 -3.302868e-002 -2.974742e-002
         vertex -3.810000e-002 -2.022255e-002 3.958346e-002
      endloop
   endfacet
   facet normal -1.000000e+000 0.000000e+000 0.000000e+000
      outer loop
         vertex -3.810000e-002 -2.022255e-002 3.958346e-002
         vertex -3.810000e-002 -3.302868e-002 -2.974742e-002
         vertex -3.810000e-002 -3.640619e-002 -2.550278e-002
      endloop
   endfacet
   facet normal -1.000000e+000 0.000000e+000 0.000000e+000
      outer loop
         vertex -3.810000e-002 -2.022255e-002 3.958346e-002
         vertex -3.810000e-002 -3.640619e-002 -2.550278e-002
         vertex -3.810000e-002 -3.924152e-002 -2.087835e-002
      endloop
   endfacet
   facet normal -1.000000e+000 0.000000e+000 0.000000e+000
      outer loop
         vertex -3.810000e-002 -3.924152e-002 -2.087835e-002
         vertex -3.810000e-002 -4.149245e-002 -1.594299e-002
         vertex -3.810000e-002 -2.022255e-002 3.958346e-002
      endloop
   endfacet
   facet normal -1.000000e+000 0.000000e+000 0.000000e+000
      outer loop
         vertex -3.810000e-002 -2.022255e-002 3.958346e-002
         vertex -3.810000e-002 -4.149245e-002 -1.594299e-002
         vertex -3.810000e-002 -4.312546e-002 -1.077019e-002
      endloop
   endfacet
   facet normal -1.000000e+000 0.000000e+000 0.000000e+000
      outer loop
         vertex -3.810000e-002 -2.022255e-002 3.958346e-002
         vertex -3.810000e-002 -4.312546e-002 -1.077019e-002
         vertex -3.810000e-002 -4.411623e-002 -5.437006e-003
      endloop
   endfacet
   facet normal -1.000000e+000 0.000000e+000 0.000000e+000
      outer loop
         vertex -3.810000e-002 -4.411623e-002 -5.437006e-003
         vertex -3.810000e-002 -4.444999e-002 -2.284751e-005
         vertex -3.810000e-002 -2.022255e-002 3.958346e-002
      endloop
   endfacet
   facet normal -1.000000e+000 0.000000e+000 0.000000e+000
      outer loop
         vertex -3.810000e-002 -2.022255e-002 3.958346e-002
         vertex -3.810000e-002 -4.444999e-002 -2.284751e-005
         vertex -3.810000e-002 -4.412179e-002 5.391649e-003
      endloop
   endfacet
   facet normal -1.000000e+000 0.000000e+000 0.000000e+000
      outer loop
         vertex -3.810000e-002 -2.022255e-002 3.958346e-002
         vertex -3.810000e-002 -4.412179e-002 5.391649e-003
         vertex -3.810000e-002 -4.313651e-002 1.072585e-002
      endloop
   endfacet
   facet normal -1.000000e+000 0.000000e+000 0.000000e+000
      outer loop
         vertex -3.810000e-002 -4.313651e-002 1.072585e-002
         vertex -3.810000e-002 -4.150882e-002 1.590032e-002
         vertex -3.810000e-002 -2.022255e-002 3.958346e-002
      endloop
   endfacet
   facet normal -1.000000e+000 0.000000e+000 0.000000e+000
      outer loop
         vertex -3.810000e-002 -2.022255e-002 3.958346e-002
         vertex -3.810000e-002 -4.150882e-002 1.590032e-002
         vertex -3.810000e-002 -3.926297e-002 2.083800e-002
      endloop
   endfacet
   facet normal -1.000000e+000 0.000000e+000 0.000000e+000
      outer loop
         vertex -3.810000e-002 -2.022255e-002 3.958346e-002
         vertex -3.810000e-002 -3.926297e-002 2.083800e-002
         vertex -3.810000e-002 -3.643239e-002 2.546534e-002
      endloop
   endfacet
   facet normal -1.000000e+000 0.000000e+000 0.000000e+000
      outer loop
         vertex -3.810000e-002 -3.643239e-002 2.546534e-002
         vertex -3.810000e-002 -3.305924e-002 2.971345e-002
         vertex -3.810000e-002 -2.022255e-002 3.958346e-002
      endloop
   endfacet
   facet normal -1.000000e+000 0.000000e+000 0.000000e+000
      outer loop
         vertex -3.810000e-002 -2.022255e-002 3.958346e-002
         vertex -3.810000e-002 -3.305924e-002 2.971345e-002
         vertex -3.810000e-002 -2.919377e-002 3.351904e-002
      endloop
   endfacet
   facet normal -1.000000e+000 0.000000e+000 0.000000e+000
      outer loop
         vertex -3.810000e-002 -2.022255e-002 3.958346e-002
         vertex -3.810000e-002 -2.919377e-002 3.351904e-002
         vertex -3.810000e-002 -2.489352e-002 3.682547e-002
      endloop
   endfacet
   facet normal 1.000000e+000 0.000000e+000 0.000000e+000
      outer loop
         vertex 3.810000e-002 5.433363e-002 -7.685515e-002
         vertex 3.810000e-002 7.366000e-002 -5.752877e-002
         vertex 3.810000e-002 7.366000e-002 -5.080000e-002
      endloop
   endfacet
   facet normal 1.000000e+000 0.000000e+000 0.000000e+000
      outer loop
         vertex 3.810000e-002 4.826000e-002 -5.080000e-002
         vertex 3.810000e-002 3.445451e-002 -7.685515e-002
         vertex 3.810000e-002 5.401414e-002 -5.080000e-002
      endloop
   endfacet
   facet normal 1.000000e+000 0.000000e+000 0.000000e+000
      outer loop
         vertex 3.810000e-002 5.401414e-002 -5.080000e-002
         vertex 3.810000e-002 3.445451e-002 -7.685515e-002
         vertex 3.810000e-002 5.433363e-002 -7.685515e-002
      endloop
   endfacet
   facet normal 1.000000e+000 0.000000e+000 0.000000e+000
      outer loop
         vertex 3.810000e-002 5.808293e-002 -4.673121e-002
         vertex 3.810000e-002 5.401414e-002 -5.080000e-002
         vertex 3.810000e-002 6.383707e-002 -4.673121e-002
      endloop
   endfacet
   facet normal 1.000000e+000 0.000000e+000 0.000000e+000
      outer loop
         vertex 3.810000e-002 6.383707e-002 -4.673121e-002
         vertex 3.810000e-002 5.401414e-002 -5.080000e-002
         vertex 3.810000e-002 5.433363e-002 -7.685515e-002
      endloop
   endfacet
   facet normal 1.000000e+000 0.000000e+000 0.000000e+000
      outer loop
         vertex 3.810000e-002 6.383707e-002 -4.673121e-002
         vertex 3.810000e-002 5.433363e-002 -7.685515e-002
         vertex 3.810000e-002 6.790586e-002 -5.080000e-002
      endloop
   endfacet
   facet normal 1.000000e+000 0.000000e+000 0.000000e+000
      outer loop
         vertex 3.810000e-002 6.790586e-002 -5.080000e-002
         vertex 3.810000e-002 5.433363e-002 -7.685515e-002
         vertex 3.810000e-002 7.366000e-002 -5.080000e-002
      endloop
   endfacet
   facet normal 1.000000e+000 0.000000e+000 0.000000e+000
      outer loop
         vertex 3.810000e-002 1.658875e-002 4.123852e-002
         vertex 3.810000e-002 1.144208e-002 4.295208e-002
         vertex 3.810000e-002 4.826000e-002 -3.069639e-010
      endloop
   endfacet
   facet normal 1.000000e+000 0.000000e+000 0.000000e+000
      outer loop
         vertex 3.810000e-002 4.826000e-002 -3.069639e-010
         vertex 3.810000e-002 1.144208e-002 4.295208e-002
         vertex 3.810000e-002 6.125006e-003 4.402598e-002
      endloop
   endfacet
   facet normal 1.000000e+000 0.000000e+000 0.000000e+000
      outer loop
         vertex 3.810000e-002 4.826000e-002 -3.069639e-010
         vertex 3.810000e-002 6.125006e-003 4.402598e-002
         vertex 3.810000e-002 4.826000e-002 -5.080000e-002
      endloop
   endfacet
   facet normal 1.000000e+000 0.000000e+000 0.000000e+000
      outer loop
         vertex 3.810000e-002 4.826000e-002 -5.080000e-002
         vertex 3.810000e-002 6.125006e-003 4.402598e-002
         vertex 3.810000e-002 -2.485565e-002 -3.685104e-002
      endloop
   endfacet
   facet normal 1.000000e+000 0.000000e+000 0.000000e+000
      outer loop
         vertex 3.810000e-002 4.826000e-002 -5.080000e-002
         vertex 3.810000e-002 -2.485565e-002 -3.685104e-002
         vertex 3.810000e-002 3.445451e-002 -7.685515e-002
      endloop
   endfacet
   facet normal 1.000000e+000 0.000000e+000 0.000000e+000
      outer loop
         vertex 3.810000e-002 1.658875e-002 4.123852e-002
         vertex 3.810000e-002 4.826000e-002 -3.069639e-010
         vertex 3.810000e-002 5.433363e-002 2.605514e-002
      endloop
   endfacet
   facet normal 1.000000e+000 0.000000e+000 0.000000e+000
      outer loop
         vertex 3.810000e-002 5.433363e-002 2.605514e-002
         vertex 3.810000e-002 4.826000e-002 -3.069639e-010
         vertex 3.810000e-002 5.401414e-002 -3.069639e-010
      endloop
   endfacet
   facet normal 1.000000e+000 0.000000e+000 0.000000e+000
      outer loop
         vertex 3.810000e-002 5.433363e-002 2.605514e-002
         vertex 3.810000e-002 5.401414e-002 -3.069639e-010
         vertex 3.810000e-002 5.808293e-002 -4.068790e-003
      endloop
   endfacet
   facet normal 1.000000e+000 0.000000e+000 0.000000e+000
      outer loop
         vertex 3.810000e-002 6.125006e-003 4.402598e-002
         vertex 3.810000e-002 7.167189e-004 4.444422e-002
         vertex 3.810000e-002 -2.485565e-002 -3.685104e-002
      endloop
   endfacet
   facet normal 1.000000e+000 0.000000e+000 0.000000e+000
      outer loop
         vertex 3.810000e-002 -2.485565e-002 -3.685104e-002
         vertex 3.810000e-002 7.167189e-004 4.444422e-002
         vertex 3.810000e-002 -4.702243e-003 4.420058e-002
      endloop
   endfacet
   facet normal 1.000000e+000 0.000000e+000 0.000000e+000
      outer loop
         vertex 3.810000e-002 -2.485565e-002 -3.685104e-002
         vertex 3.810000e-002 -4.702243e-003 4.420058e-002
         vertex 3.810000e-002 -1.005118e-002 4.329869e-002
      endloop
   endfacet
   facet normal 1.000000e+000 0.000000e+000 0.000000e+000
      outer loop
         vertex 3.810000e-002 7.366000e-002 -3.069639e-010
         vertex 3.810000e-002 7.366000e-002 6.728766e-003
         vertex 3.810000e-002 6.790586e-002 -3.069639e-010
      endloop
   endfacet
   facet normal 1.000000e+000 0.000000e+000 0.000000e+000
      outer loop
         vertex 3.810000e-002 6.790586e-002 -3.069639e-010
         vertex 3.810000e-002 7.366000e-002 6.728766e-003
         vertex 3.810000e-002 5.433363e-002 2.605514e-002
      endloop
   endfacet
   facet normal 1.000000e+000 0.000000e+000 0.000000e+000
      outer loop
         vertex 3.810000e-002 6.790586e-002 -3.069639e-010
         vertex 3.810000e-002 5.433363e-002 2.605514e-002
         vertex 3.810000e-002 6.383707e-002 -4.068790e-003
      endloop
   endfacet
   facet normal 1.000000e+000 0.000000e+000 0.000000e+000
      outer loop
         vertex 3.810000e-002 6.383707e-002 -4.068790e-003
         vertex 3.810000e-002 5.433363e-002 2.605514e-002
         vertex 3.810000e-002 5.808293e-002 -4.068790e-003
      endloop
   endfacet
   facet normal 1.000000e+000 0.000000e+000 0.000000e+000
      outer loop
         vertex 3.810000e-002 -4.412179e-002 5.391649e-003
         vertex 3.810000e-002 -4.444999e-002 -2.284751e-005
         vertex 3.810000e-002 -2.915929e-002 -3.354904e-002
      endloop
   endfacet
   facet normal 1.000000e+000 0.000000e+000 0.000000e+000
      outer loop
         vertex 3.810000e-002 -2.915929e-002 -3.354904e-002
         vertex 3.810000e-002 -4.444999e-002 -2.284751e-005
         vertex 3.810000e-002 -4.411623e-002 -5.437006e-003
      endloop
   endfacet
   facet normal 1.000000e+000 0.000000e+000 0.000000e+000
      outer loop
         vertex 3.810000e-002 -2.915929e-002 -3.354904e-002
         vertex 3.810000e-002 -4.411623e-002 -5.437006e-003
         vertex 3.810000e-002 -3.302868e-002 -2.974742e-002
      endloop
   endfacet
   facet normal 1.000000e+000 0.000000e+000 0.000000e+000
      outer loop
         vertex 3.810000e-002 -1.005118e-002 4.329869e-002
         vertex 3.810000e-002 -1.525042e-002 4.175197e-002
         vertex 3.810000e-002 -2.485565e-002 -3.685104e-002
      endloop
   endfacet
   facet normal 1.000000e+000 0.000000e+000 0.000000e+000
      outer loop
         vertex 3.810000e-002 -2.485565e-002 -3.685104e-002
         vertex 3.810000e-002 -1.525042e-002 4.175197e-002
         vertex 3.810000e-002 -2.022255e-002 3.958346e-002
      endloop
   endfacet
   facet normal 1.000000e+000 0.000000e+000 0.000000e+000
      outer loop
         vertex 3.810000e-002 -2.485565e-002 -3.685104e-002
         vertex 3.810000e-002 -2.022255e-002 3.958346e-002
         vertex 3.810000e-002 -2.915929e-002 -3.354904e-002
      endloop
   endfacet
   facet normal 1.000000e+000 0.000000e+000 0.000000e+000
      outer loop
         vertex 3.810000e-002 -2.915929e-002 -3.354904e-002
         vertex 3.810000e-002 -2.022255e-002 3.958346e-002
         vertex 3.810000e-002 -2.489352e-002 3.682547e-002
      endloop
   endfacet
   facet normal 1.000000e+000 0.000000e+000 0.000000e+000
      outer loop
         vertex 3.810000e-002 -2.915929e-002 -3.354904e-002
         vertex 3.810000e-002 -2.489352e-002 3.682547e-002
         vertex 3.810000e-002 -2.919377e-002 3.351904e-002
      endloop
   endfacet
   facet normal 1.000000e+000 0.000000e+000 0.000000e+000
      outer loop
         vertex 3.810000e-002 -2.919377e-002 3.351904e-002
         vertex 3.810000e-002 -3.305924e-002 2.971345e-002
         vertex 3.810000e-002 -2.915929e-002 -3.354904e-002
      endloop
   endfacet
   facet normal 1.000000e+000 0.000000e+000 0.000000e+000
      outer loop
         vertex 3.810000e-002 -2.915929e-002 -3.354904e-002
         vertex 3.810000e-002 -3.305924e-002 2.971345e-002
         vertex 3.810000e-002 -3.643239e-002 2.546534e-002
      endloop
   endfacet
   facet normal 1.000000e+000 0.000000e+000 0.000000e+000
      outer loop
         vertex 3.810000e-002 -2.915929e-002 -3.354904e-002
         vertex 3.810000e-002 -3.643239e-002 2.546534e-002
         vertex 3.810000e-002 -3.926297e-002 2.083800e-002
      endloop
   endfacet
   facet normal 1.000000e+000 0.000000e+000 0.000000e+000
      outer loop
         vertex 3.810000e-002 -3.926297e-002 2.083800e-002
         vertex 3.810000e-002 -4.150882e-002 1.590032e-002
         vertex 3.810000e-002 -2.915929e-002 -3.354904e-002
      endloop
   endfacet
   facet normal 1.000000e+000 0.000000e+000 0.000000e+000
      outer loop
         vertex 3.810000e-002 -2.915929e-002 -3.354904e-002
         vertex 3.810000e-002 -4.150882e-002 1.590032e-002
         vertex 3.810000e-002 -4.313651e-002 1.072585e-002
      endloop
   endfacet
   facet normal 1.000000e+000 0.000000e+000 0.000000e+000
      outer loop
         vertex 3.810000e-002 -2.915929e-002 -3.354904e-002
         vertex 3.810000e-002 -4.313651e-002 1.072585e-002
         vertex 3.810000e-002 -4.412179e-002 5.391649e-003
      endloop
   endfacet
   facet normal 1.000000e+000 0.000000e+000 0.000000e+000
      outer loop
         vertex 3.810000e-002 -4.149245e-002 -1.594299e-002
         vertex 3.810000e-002 -3.924152e-002 -2.087835e-002
         vertex 3.810000e-002 -3.640619e-002 -2.550278e-002
      endloop
   endfacet
   facet normal 1.000000e+000 0.000000e+000 0.000000e+000
      outer loop
         vertex 3.810000e-002 -3.302868e-002 -2.974742e-002
         vertex 3.810000e-002 -4.411623e-002 -5.437006e-003
         vertex 3.810000e-002 -3.640619e-002 -2.550278e-002
      endloop
   endfacet
   facet normal 1.000000e+000 0.000000e+000 0.000000e+000
      outer loop
         vertex 3.810000e-002 -3.640619e-002 -2.550278e-002
         vertex 3.810000e-002 -4.411623e-002 -5.437006e-003
         vertex 3.810000e-002 -4.312546e-002 -1.077019e-002
      endloop
   endfacet
   facet normal 1.000000e+000 0.000000e+000 0.000000e+000
      outer loop
         vertex 3.810000e-002 -3.640619e-002 -2.550278e-002
         vertex 3.810000e-002 -4.312546e-002 -1.077019e-002
         vertex 3.810000e-002 -4.149245e-002 -1.594299e-002
      endloop
   endfacet
   facet normal 5.579373e-001 -8.298831e-001 2.013269e-017
      outer loop
         vertex -2.162551e-002 3.063637e-002 -7.427984e-002
         vertex -1.948440e-002 3.204073e-002 -7.522707e-002
         vertex -2.162551e-002 3.063637e-002 -3.875514e-002
      endloop
   endfacet
   facet normal 5.195839e-001 -8.544194e-001 -1.098643e-016
      outer loop
         vertex -2.162551e-002 3.063637e-002 -3.875514e-002
         vertex -1.948440e-002 3.204073e-002 -7.522707e-002
         vertex -1.725244e-002 3.329569e-002 -3.875514e-002
      endloop
   endfacet
   facet normal 5.951246e-001 -8.036335e-001 2.730370e-017
      outer loop
         vertex -2.162551e-002 3.063637e-002 -7.427984e-002
         vertex -2.162551e-002 3.063637e-002 -3.875514e-002
         vertex -2.366580e-002 2.908917e-002 -7.323628e-002
      endloop
   endfacet
   facet normal 6.310880e-001 -7.757113e-001 -8.836240e-017
      outer loop
         vertex -2.366580e-002 2.908917e-002 -7.323628e-002
         vertex -2.162551e-002 3.063637e-002 -3.875514e-002
         vertex -2.559574e-002 2.740635e-002 -3.875514e-002
      endloop
   endfacet
   facet normal 6.657431e-001 -7.461810e-001 4.299881e-017
      outer loop
         vertex -2.366580e-002 2.908917e-002 -7.323628e-002
         vertex -2.559574e-002 2.740635e-002 -3.875514e-002
         vertex -2.559574e-002 2.740635e-002 -7.210123e-002
      endloop
   endfacet
   facet normal 6.990097e-001 -7.151123e-001 5.148633e-017
      outer loop
         vertex -2.559574e-002 2.740635e-002 -7.210123e-002
         vertex -2.559574e-002 2.740635e-002 -3.875514e-002
         vertex -2.740635e-002 2.559574e-002 -7.088000e-002
      endloop
   endfacet
   facet normal 7.308360e-001 -6.825532e-001 -6.291303e-017
      outer loop
         vertex -2.740635e-002 2.559574e-002 -7.088000e-002
         vertex -2.559574e-002 2.740635e-002 -3.875514e-002
         vertex -2.908917e-002 2.366580e-002 -3.875514e-002
      endloop
   endfacet
   facet normal 7.611473e-001 -6.485791e-001 7.951149e-018
      outer loop
         vertex -2.740635e-002 2.559574e-002 -7.088000e-002
         vertex -2.908917e-002 2.366580e-002 -3.875514e-002
         vertex -2.908917e-002 2.366580e-002 -6.957826e-002
      endloop
   endfacet
   facet normal 7.898735e-001 -6.132699e-001 -4.411393e-017
      outer loop
         vertex -2.908917e-002 2.366580e-002 -6.957826e-002
         vertex -2.908917e-002 2.366580e-002 -3.875514e-002
         vertex -3.063637e-002 2.162551e-002 -6.820211e-002
      endloop
   endfacet
   facet normal 8.169699e-001 -5.766802e-001 -9.576522e-017
      outer loop
         vertex -3.063637e-002 2.162551e-002 -6.820211e-002
         vertex -2.908917e-002 2.366580e-002 -3.875514e-002
         vertex -3.204073e-002 1.948440e-002 -3.875514e-002
      endloop
   endfacet
   facet normal 8.423728e-001 -5.388953e-001 -2.379595e-017
      outer loop
         vertex -3.063637e-002 2.162551e-002 -6.820211e-002
         vertex -3.204073e-002 1.948440e-002 -3.875514e-002
         vertex -3.204073e-002 1.948440e-002 -6.675795e-002
      endloop
   endfacet
   facet normal 9.496496e-001 -3.133140e-001 -2.378552e-017
      outer loop
         vertex -3.439542e-002 1.494004e-002 -3.875514e-002
         vertex -3.610940e-002 1.011738e-002 -3.875514e-002
         vertex -3.610940e-002 1.011738e-002 -6.044000e-002
      endloop
   endfacet
   facet normal 9.422609e-001 -3.348796e-001 3.206610e-017
      outer loop
         vertex -3.610940e-002 1.011738e-002 -6.044000e-002
         vertex -3.533478e-002 1.255799e-002 -6.208616e-002
         vertex -3.439542e-002 1.494004e-002 -3.875514e-002
      endloop
   endfacet
   facet normal 9.260411e-001 -3.774228e-001 2.031590e-017
      outer loop
         vertex -3.439542e-002 1.494004e-002 -3.875514e-002
         vertex -3.533478e-002 1.255799e-002 -6.208616e-002
         vertex -3.439542e-002 1.494004e-002 -6.369283e-002
      endloop
   endfacet
   facet normal 8.981416e-001 -4.397064e-001 -5.831399e-017
      outer loop
         vertex -3.439542e-002 1.494004e-002 -3.875514e-002
         vertex -3.439542e-002 1.494004e-002 -6.369283e-002
         vertex -3.204073e-002 1.948440e-002 -3.875514e-002
      endloop
   endfacet
   facet normal 8.878852e-001 -4.600650e-001 -2.132648e-018
      outer loop
         vertex -3.204073e-002 1.948440e-002 -3.875514e-002
         vertex -3.439542e-002 1.494004e-002 -6.369283e-002
         vertex -3.329569e-002 1.725244e-002 -6.525252e-002
      endloop
   endfacet
   facet normal 8.660234e-001 -5.000034e-001 -1.317126e-017
      outer loop
         vertex -3.204073e-002 1.948440e-002 -3.875514e-002
         vertex -3.329569e-002 1.725244e-002 -6.525252e-002
         vertex -3.204073e-002 1.948440e-002 -6.675795e-002
      endloop
   endfacet
   facet normal 9.989651e-001 -4.548312e-002 1.847826e-017
      outer loop
         vertex -3.715072e-002 5.106249e-003 -3.875514e-002
         vertex -3.750000e-002 8.291103e-018 -3.875514e-002
         vertex -3.750000e-002 4.024170e-018 -5.361592e-002
      endloop
   endfacet
   facet normal 9.976687e-001 -6.824242e-002 7.401980e-017
      outer loop
         vertex -3.750000e-002 4.024170e-018 -5.361592e-002
         vertex -3.741258e-002 2.559090e-003 -5.534200e-002
         vertex -3.715072e-002 5.106249e-003 -3.875514e-002
      endloop
   endfacet
   facet normal 9.935284e-001 -1.135841e-001 9.239262e-017
      outer loop
         vertex -3.715072e-002 5.106249e-003 -3.875514e-002
         vertex -3.741258e-002 2.559090e-003 -5.534200e-002
         vertex -3.715072e-002 5.106249e-003 -5.706004e-002
      endloop
   endfacet
   facet normal 9.834674e-001 -1.810852e-001 1.233739e-017
      outer loop
         vertex -3.715072e-002 5.106249e-003 -3.875514e-002
         vertex -3.715072e-002 5.106249e-003 -5.706004e-002
         vertex -3.610940e-002 1.011738e-002 -3.875514e-002
      endloop
   endfacet
   facet normal 9.790841e-001 -2.034560e-001 6.796903e-017
      outer loop
         vertex -3.610940e-002 1.011738e-002 -3.875514e-002
         vertex -3.715072e-002 5.106249e-003 -5.706004e-002
         vertex -3.671565e-002 7.629600e-003 -5.876201e-002
      endloop
   endfacet
   facet normal 9.688082e-001 -2.478116e-001 5.572370e-017
      outer loop
         vertex -3.610940e-002 1.011738e-002 -3.875514e-002
         vertex -3.671565e-002 7.629600e-003 -5.876201e-002
         vertex -3.610940e-002 1.011738e-002 -6.044000e-002
      endloop
   endfacet
   facet normal -9.997410e-001 -2.275926e-002 5.549355e-017
      outer loop
         vertex 3.750000e-002 2.153569e-017 -5.361592e-002
         vertex 3.750000e-002 1.747595e-017 -3.875514e-002
         vertex 3.741258e-002 2.559090e-003 -5.534200e-002
      endloop
   endfacet
   facet normal -9.976687e-001 -6.824242e-002 4.313227e-017
      outer loop
         vertex 3.741258e-002 2.559090e-003 -5.534200e-002
         vertex 3.750000e-002 1.747595e-017 -3.875514e-002
         vertex 3.715072e-002 5.106249e-003 -3.875514e-002
      endloop
   endfacet
   facet normal -9.790841e-001 -2.034560e-001 6.193979e-018
      outer loop
         vertex 3.610940e-002 1.011738e-002 -3.875514e-002
         vertex 3.671565e-002 7.629600e-003 -5.876201e-002
         vertex 3.715072e-002 5.106249e-003 -3.875514e-002
      endloop
   endfacet
   facet normal -9.873303e-001 -1.586787e-001 8.007347e-017
      outer loop
         vertex 3.715072e-002 5.106249e-003 -3.875514e-002
         vertex 3.671565e-002 7.629600e-003 -5.876201e-002
         vertex 3.715072e-002 5.106249e-003 -5.706004e-002
      endloop
   endfacet
   facet normal -9.935284e-001 -1.135841e-001 9.239262e-017
      outer loop
         vertex 3.715072e-002 5.106249e-003 -3.875514e-002
         vertex 3.715072e-002 5.106249e-003 -5.706004e-002
         vertex 3.741258e-002 2.559090e-003 -5.534200e-002
      endloop
   endfacet
   facet normal -9.422609e-001 -3.348796e-001 -2.970895e-017
      outer loop
         vertex 3.439542e-002 1.494004e-002 -3.875514e-002
         vertex 3.533478e-002 1.255799e-002 -6.208616e-002
         vertex 3.610940e-002 1.011738e-002 -3.875514e-002
      endloop
   endfacet
   facet normal -9.565275e-001 -2.916422e-001 4.374987e-017
      outer loop
         vertex 3.610940e-002 1.011738e-002 -3.875514e-002
         vertex 3.533478e-002 1.255799e-002 -6.208616e-002
         vertex 3.610940e-002 1.011738e-002 -6.044000e-002
      endloop
   endfacet
   facet normal -9.688082e-001 -2.478116e-001 5.572370e-017
      outer loop
         vertex 3.610940e-002 1.011738e-002 -3.875514e-002
         vertex 3.610940e-002 1.011738e-002 -6.044000e-002
         vertex 3.671565e-002 7.629600e-003 -5.876201e-002
      endloop
   endfacet
   facet normal -8.878852e-001 -4.600650e-001 -6.390771e-017
      outer loop
         vertex 3.204073e-002 1.948440e-002 -3.875514e-002
         vertex 3.329569e-002 1.725244e-002 -6.525252e-002
         vertex 3.439542e-002 1.494004e-002 -3.875514e-002
      endloop
   endfacet
   facet normal -9.079064e-001 -4.191729e-001 8.910395e-018
      outer loop
         vertex 3.439542e-002 1.494004e-002 -3.875514e-002
         vertex 3.329569e-002 1.725244e-002 -6.525252e-002
         vertex 3.439542e-002 1.494004e-002 -6.369283e-002
      endloop
   endfacet
   facet normal -9.260410e-001 -3.774228e-001 2.031588e-017
      outer loop
         vertex 3.439542e-002 1.494004e-002 -3.875514e-002
         vertex 3.439542e-002 1.494004e-002 -6.369283e-002
         vertex 3.533478e-002 1.255799e-002 -6.208616e-002
      endloop
   endfacet
   facet normal -8.169699e-001 -5.766802e-001 -9.576522e-017
      outer loop
         vertex 2.908917e-002 2.366580e-002 -3.875514e-002
         vertex 3.063637e-002 2.162551e-002 -6.820211e-002
         vertex 3.204073e-002 1.948440e-002 -3.875514e-002
      endloop
   endfacet
   facet normal -8.423728e-001 -5.388953e-001 -2.379595e-017
      outer loop
         vertex 3.204073e-002 1.948440e-002 -3.875514e-002
         vertex 3.063637e-002 2.162551e-002 -6.820211e-002
         vertex 3.204073e-002 1.948440e-002 -6.675795e-002
      endloop
   endfacet
   facet normal -8.660234e-001 -5.000034e-001 -1.317126e-017
      outer loop
         vertex 3.204073e-002 1.948440e-002 -3.875514e-002
         vertex 3.204073e-002 1.948440e-002 -6.675795e-002
         vertex 3.329569e-002 1.725244e-002 -6.525252e-002
      endloop
   endfacet
   facet normal -7.308360e-001 -6.825532e-001 -6.291303e-017
      outer loop
         vertex 2.559574e-002 2.740635e-002 -3.875514e-002
         vertex 2.740635e-002 2.559574e-002 -7.088000e-002
         vertex 2.908917e-002 2.366580e-002 -3.875514e-002
      endloop
   endfacet
   facet normal -7.611473e-001 -6.485791e-001 7.951149e-018
      outer loop
         vertex 2.908917e-002 2.366580e-002 -3.875514e-002
         vertex 2.740635e-002 2.559574e-002 -7.088000e-002
         vertex 2.908917e-002 2.366580e-002 -6.957826e-002
      endloop
   endfacet
   facet normal -7.898735e-001 -6.132699e-001 -4.411393e-017
      outer loop
         vertex 2.908917e-002 2.366580e-002 -3.875514e-002
         vertex 2.908917e-002 2.366580e-002 -6.957826e-002
         vertex 3.063637e-002 2.162551e-002 -6.820211e-002
      endloop
   endfacet
   facet normal -6.310880e-001 -7.757113e-001 -8.836240e-017
      outer loop
         vertex 2.162551e-002 3.063637e-002 -3.875514e-002
         vertex 2.366580e-002 2.908917e-002 -7.323628e-002
         vertex 2.559574e-002 2.740635e-002 -3.875514e-002
      endloop
   endfacet
   facet normal -6.657431e-001 -7.461810e-001 4.299881e-017
      outer loop
         vertex 2.559574e-002 2.740635e-002 -3.875514e-002
         vertex 2.366580e-002 2.908917e-002 -7.323628e-002
         vertex 2.559574e-002 2.740635e-002 -7.210123e-002
      endloop
   endfacet
   facet normal -6.990097e-001 -7.151123e-001 5.148633e-017
      outer loop
         vertex 2.559574e-002 2.740635e-002 -3.875514e-002
         vertex 2.559574e-002 2.740635e-002 -7.210123e-002
         vertex 2.740635e-002 2.559574e-002 -7.088000e-002
      endloop
   endfacet
   facet normal -5.195839e-001 -8.544194e-001 -1.098643e-016
      outer loop
         vertex 1.725244e-002 3.329569e-002 -3.875514e-002
         vertex 1.948440e-002 3.204073e-002 -7.522707e-002
         vertex 2.162551e-002 3.063637e-002 -3.875514e-002
      endloop
   endfacet
   facet normal -5.579373e-001 -8.298831e-001 2.013269e-017
      outer loop
         vertex 2.162551e-002 3.063637e-002 -3.875514e-002
         vertex 1.948440e-002 3.204073e-002 -7.522707e-002
         vertex 2.162551e-002 3.063637e-002 -7.427984e-002
      endloop
   endfacet
   facet normal -5.951246e-001 -8.036335e-001 2.730370e-017
      outer loop
         vertex 2.162551e-002 3.063637e-002 -3.875514e-002
         vertex 2.162551e-002 3.063637e-002 -7.427984e-002
         vertex 2.366580e-002 2.908917e-002 -7.323628e-002
      endloop
   endfacet
   facet normal -3.971841e-001 -9.177390e-001 -2.507123e-016
      outer loop
         vertex 1.255798e-002 3.533478e-002 -3.875514e-002
         vertex 1.480326e-002 3.445451e-002 -7.685515e-002
         vertex 1.725244e-002 3.329569e-002 -3.875514e-002
      endloop
   endfacet
   facet normal -4.385490e-001 -8.987073e-001 -1.220834e-016
      outer loop
         vertex 1.725244e-002 3.329569e-002 -3.875514e-002
         vertex 1.480326e-002 3.445451e-002 -7.685515e-002
         vertex 1.725244e-002 3.329569e-002 -7.607353e-002
      endloop
   endfacet
   facet normal -4.801535e-001 -8.771845e-001 7.210667e-018
      outer loop
         vertex 1.725244e-002 3.329569e-002 -3.875514e-002
         vertex 1.725244e-002 3.329569e-002 -7.607353e-002
         vertex 1.948440e-002 3.204073e-002 -7.522707e-002
      endloop
   endfacet
   facet normal 4.801535e-001 -8.771845e-001 7.210667e-018
      outer loop
         vertex -1.948440e-002 3.204073e-002 -7.522707e-002
         vertex -1.725244e-002 3.329569e-002 -7.607353e-002
         vertex -1.725244e-002 3.329569e-002 -3.875514e-002
      endloop
   endfacet
   facet normal 4.385490e-001 -8.987073e-001 -1.220834e-016
      outer loop
         vertex -1.725244e-002 3.329569e-002 -3.875514e-002
         vertex -1.725244e-002 3.329569e-002 -7.607353e-002
         vertex -1.480327e-002 3.445451e-002 -7.685515e-002
      endloop
   endfacet
   facet normal 3.971841e-001 -9.177390e-001 -2.507123e-016
      outer loop
         vertex -1.725244e-002 3.329569e-002 -3.875514e-002
         vertex -1.480327e-002 3.445451e-002 -7.685515e-002
         vertex -1.255798e-002 3.533478e-002 -3.875514e-002
      endloop
   endfacet
   facet normal 3.550008e-001 -9.348660e-001 -2.553912e-016
      outer loop
         vertex -1.255798e-002 3.533478e-002 -3.875514e-002
         vertex -1.480327e-002 3.445451e-002 -7.685515e-002
         vertex -1.255798e-002 3.533478e-002 -7.685515e-002
      endloop
   endfacet
   facet normal 2.916761e-001 -9.565172e-001 -2.613060e-016
      outer loop
         vertex -1.255798e-002 3.533478e-002 -3.875514e-002
         vertex -1.255798e-002 3.533478e-002 -7.685515e-002
         vertex -7.629600e-003 3.671565e-002 -3.875514e-002
      endloop
   endfacet
   facet normal 2.477773e-001 -9.688171e-001 -2.646661e-016
      outer loop
         vertex -7.629600e-003 3.671565e-002 -3.875514e-002
         vertex -1.255798e-002 3.533478e-002 -7.685515e-002
         vertex -7.629600e-003 3.671565e-002 -7.685515e-002
      endloop
   endfacet
   facet normal 1.587137e-001 -9.873247e-001 -2.697221e-016
      outer loop
         vertex -7.629600e-003 3.671565e-002 -3.875514e-002
         vertex -7.629600e-003 3.671565e-002 -7.685515e-002
         vertex -2.559089e-003 3.741258e-002 -3.875514e-002
      endloop
   endfacet
   facet normal 1.135489e-001 -9.935324e-001 -2.714179e-016
      outer loop
         vertex -2.559089e-003 3.741258e-002 -3.875514e-002
         vertex -7.629600e-003 3.671565e-002 -7.685515e-002
         vertex -2.559089e-003 3.741258e-002 -7.685515e-002
      endloop
   endfacet
   facet normal 2.279470e-002 -9.997402e-001 -2.731138e-016
      outer loop
         vertex -2.559089e-003 3.741258e-002 -3.875514e-002
         vertex -2.559089e-003 3.741258e-002 -7.685515e-002
         vertex 2.559091e-003 3.741258e-002 -3.875514e-002
      endloop
   endfacet
   facet normal -2.279470e-002 -9.997402e-001 -2.731138e-016
      outer loop
         vertex 2.559091e-003 3.741258e-002 -3.875514e-002
         vertex -2.559089e-003 3.741258e-002 -7.685515e-002
         vertex 2.559091e-003 3.741258e-002 -7.685515e-002
      endloop
   endfacet
   facet normal -1.135489e-001 -9.935324e-001 -2.714179e-016
      outer loop
         vertex 2.559091e-003 3.741258e-002 -3.875514e-002
         vertex 2.559091e-003 3.741258e-002 -7.685515e-002
         vertex 7.629601e-003 3.671565e-002 -3.875514e-002
      endloop
   endfacet
   facet normal -1.587137e-001 -9.873247e-001 -2.697221e-016
      outer loop
         vertex 7.629601e-003 3.671565e-002 -3.875514e-002
         vertex 2.559091e-003 3.741258e-002 -7.685515e-002
         vertex 7.629601e-003 3.671565e-002 -7.685515e-002
      endloop
   endfacet
   facet normal -2.477773e-001 -9.688171e-001 -2.646661e-016
      outer loop
         vertex 7.629601e-003 3.671565e-002 -3.875514e-002
         vertex 7.629601e-003 3.671565e-002 -7.685515e-002
         vertex 1.255798e-002 3.533478e-002 -3.875514e-002
      endloop
   endfacet
   facet normal -2.916761e-001 -9.565172e-001 -2.613060e-016
      outer loop
         vertex 1.255798e-002 3.533478e-002 -3.875514e-002
         vertex 7.629601e-003 3.671565e-002 -7.685515e-002
         vertex 1.255798e-002 3.533478e-002 -7.685515e-002
      endloop
   endfacet
   facet normal -3.550008e-001 -9.348660e-001 -2.553912e-016
      outer loop
         vertex 1.255798e-002 3.533478e-002 -3.875514e-002
         vertex 1.255798e-002 3.533478e-002 -7.685515e-002
         vertex 1.480326e-002 3.445451e-002 -7.685515e-002
      endloop
   endfacet
   facet normal 1.000000e+000 0.000000e+000 0.000000e+000
      outer loop
         vertex -3.750000e-002 1.464706e-017 -5.361592e-002
         vertex -3.750000e-002 1.058732e-017 -3.875514e-002
         vertex -3.750000e-002 -2.203262e-002 -3.875514e-002
      endloop
   endfacet
   facet normal -1.000000e+000 0.000000e+000 0.000000e+000
      outer loop
         vertex 3.750000e-002 -2.203262e-002 -3.875514e-002
         vertex 3.750000e-002 1.747595e-017 -3.875514e-002
         vertex 3.750000e-002 2.153569e-017 -5.361592e-002
      endloop
   endfacet
   facet normal 0.000000e+000 2.731848e-016 -1.000000e+000
      outer loop
         vertex 3.750000e-002 1.058732e-017 -3.875514e-002
         vertex 3.750000e-002 -2.203262e-002 -3.875514e-002
         vertex -3.750000e-002 -2.203262e-002 -3.875514e-002
      endloop
   endfacet
   facet normal 0.000000e+000 2.731848e-016 -1.000000e+000
      outer loop
         vertex -3.750000e-002 -2.203262e-002 -3.875514e-002
         vertex -3.750000e-002 8.291103e-018 -3.875514e-002
         vertex 3.750000e-002 1.058732e-017 -3.875514e-002
      endloop
   endfacet
   facet normal 0.000000e+000 2.731848e-016 -1.000000e+000
      outer loop
         vertex 3.750000e-002 1.058732e-017 -3.875514e-002
         vertex -3.750000e-002 8.291103e-018 -3.875514e-002
         vertex -3.715072e-002 5.106249e-003 -3.875514e-002
      endloop
   endfacet
   facet normal 0.000000e+000 2.731848e-016 -1.000000e+000
      outer loop
         vertex 3.750000e-002 1.058732e-017 -3.875514e-002
         vertex -3.715072e-002 5.106249e-003 -3.875514e-002
         vertex -3.610940e-002 1.011738e-002 -3.875514e-002
      endloop
   endfacet
   facet normal 0.000000e+000 2.731848e-016 -1.000000e+000
      outer loop
         vertex -3.610940e-002 1.011738e-002 -3.875514e-002
         vertex -3.439542e-002 1.494004e-002 -3.875514e-002
         vertex 3.750000e-002 1.058732e-017 -3.875514e-002
      endloop
   endfacet
   facet normal 0.000000e+000 2.731848e-016 -1.000000e+000
      outer loop
         vertex 3.750000e-002 1.058732e-017 -3.875514e-002
         vertex -3.439542e-002 1.494004e-002 -3.875514e-002
         vertex -3.204073e-002 1.948440e-002 -3.875514e-002
      endloop
   endfacet
   facet normal 0.000000e+000 2.731848e-016 -1.000000e+000
      outer loop
         vertex 3.750000e-002 1.058732e-017 -3.875514e-002
         vertex -3.204073e-002 1.948440e-002 -3.875514e-002
         vertex -2.908917e-002 2.366580e-002 -3.875514e-002
      endloop
   endfacet
   facet normal 0.000000e+000 2.731848e-016 -1.000000e+000
      outer loop
         vertex -2.162551e-002 3.063637e-002 -3.875514e-002
         vertex -1.725244e-002 3.329569e-002 -3.875514e-002
         vertex 1.255798e-002 3.533478e-002 -3.875514e-002
      endloop
   endfacet
   facet normal 0.000000e+000 2.731848e-016 -1.000000e+000
      outer loop
         vertex -2.162551e-002 3.063637e-002 -3.875514e-002
         vertex 1.255798e-002 3.533478e-002 -3.875514e-002
         vertex -2.559574e-002 2.740635e-002 -3.875514e-002
      endloop
   endfacet
   facet normal 0.000000e+000 2.731848e-016 -1.000000e+000
      outer loop
         vertex 2.162551e-002 3.063637e-002 -3.875514e-002
         vertex 2.559574e-002 2.740635e-002 -3.875514e-002
         vertex -2.908917e-002 2.366580e-002 -3.875514e-002
      endloop
   endfacet
   facet normal 0.000000e+000 2.731848e-016 -1.000000e+000
      outer loop
         vertex -7.629600e-003 3.671565e-002 -3.875514e-002
         vertex -2.559089e-003 3.741258e-002 -3.875514e-002
         vertex 2.559091e-003 3.741258e-002 -3.875514e-002
      endloop
   endfacet
   facet normal 0.000000e+000 2.731848e-016 -1.000000e+000
      outer loop
         vertex -1.725244e-002 3.329569e-002 -3.875514e-002
         vertex -1.255798e-002 3.533478e-002 -3.875514e-002
         vertex 1.255798e-002 3.533478e-002 -3.875514e-002
      endloop
   endfacet
   facet normal 0.000000e+000 2.731848e-016 -1.000000e+000
      outer loop
         vertex 1.255798e-002 3.533478e-002 -3.875514e-002
         vertex -1.255798e-002 3.533478e-002 -3.875514e-002
         vertex -7.629600e-003 3.671565e-002 -3.875514e-002
      endloop
   endfacet
   facet normal 0.000000e+000 2.731848e-016 -1.000000e+000
      outer loop
         vertex 1.255798e-002 3.533478e-002 -3.875514e-002
         vertex -7.629600e-003 3.671565e-002 -3.875514e-002
         vertex 7.629601e-003 3.671565e-002 -3.875514e-002
      endloop
   endfacet
   facet normal 0.000000e+000 2.731848e-016 -1.000000e+000
      outer loop
         vertex 7.629601e-003 3.671565e-002 -3.875514e-002
         vertex -7.629600e-003 3.671565e-002 -3.875514e-002
         vertex 2.559091e-003 3.741258e-002 -3.875514e-002
      endloop
   endfacet
   facet normal 0.000000e+000 2.731848e-016 -1.000000e+000
      outer loop
         vertex -2.559574e-002 2.740635e-002 -3.875514e-002
         vertex 1.255798e-002 3.533478e-002 -3.875514e-002
         vertex -2.908917e-002 2.366580e-002 -3.875514e-002
      endloop
   endfacet
   facet normal 0.000000e+000 2.731848e-016 -1.000000e+000
      outer loop
         vertex -2.908917e-002 2.366580e-002 -3.875514e-002
         vertex 1.255798e-002 3.533478e-002 -3.875514e-002
         vertex 1.725244e-002 3.329569e-002 -3.875514e-002
      endloop
   endfacet
   facet normal 0.000000e+000 2.731848e-016 -1.000000e+000
      outer loop
         vertex -2.908917e-002 2.366580e-002 -3.875514e-002
         vertex 1.725244e-002 3.329569e-002 -3.875514e-002
         vertex 2.162551e-002 3.063637e-002 -3.875514e-002
      endloop
   endfacet
   facet normal 0.000000e+000 2.731848e-016 -1.000000e+000
      outer loop
         vertex 2.559574e-002 2.740635e-002 -3.875514e-002
         vertex 2.908917e-002 2.366580e-002 -3.875514e-002
         vertex -2.908917e-002 2.366580e-002 -3.875514e-002
      endloop
   endfacet
   facet normal 0.000000e+000 2.731848e-016 -1.000000e+000
      outer loop
         vertex -2.908917e-002 2.366580e-002 -3.875514e-002
         vertex 2.908917e-002 2.366580e-002 -3.875514e-002
         vertex 3.204073e-002 1.948440e-002 -3.875514e-002
      endloop
   endfacet
   facet normal 0.000000e+000 2.731848e-016 -1.000000e+000
      outer loop
         vertex -2.908917e-002 2.366580e-002 -3.875514e-002
         vertex 3.204073e-002 1.948440e-002 -3.875514e-002
         vertex 3.439542e-002 1.494004e-002 -3.875514e-002
      endloop
   endfacet
   facet normal 0.000000e+000 2.731848e-016 -1.000000e+000
      outer loop
         vertex 3.439542e-002 1.494004e-002 -3.875514e-002
         vertex 3.610940e-002 1.011738e-002 -3.875514e-002
         vertex -2.908917e-002 2.366580e-002 -3.875514e-002
      endloop
   endfacet
   facet normal 0.000000e+000 2.731848e-016 -1.000000e+000
      outer loop
         vertex -2.908917e-002 2.366580e-002 -3.875514e-002
         vertex 3.610940e-002 1.011738e-002 -3.875514e-002
         vertex 3.715072e-002 5.106249e-003 -3.875514e-002
      endloop
   endfacet
   facet normal 0.000000e+000 2.731848e-016 -1.000000e+000
      outer loop
         vertex -2.908917e-002 2.366580e-002 -3.875514e-002
         vertex 3.715072e-002 5.106249e-003 -3.875514e-002
         vertex 3.750000e-002 1.058732e-017 -3.875514e-002
      endloop
   endfacet
endsolid